<?xml version="1.0" encoding="UTF-8"?>
<!DOCTYPE svg PUBLIC "-//W3C//DTD SVG 1.1//EN" "http://www.w3.org/Graphics/SVG/1.1/DTD/svg11.dtd">
<svg xmlns="http://www.w3.org/2000/svg" version="1.1" width="500px" height="500px" style="shape-rendering:geometricPrecision; text-rendering:geometricPrecision; image-rendering:optimizeQuality; fill-rule:evenodd; clip-rule:evenodd" xmlns:xlink="http://www.w3.org/1999/xlink">
<g><path style="opacity:0.988" fill="#000000" d="M 231.5,96.5 C 296.217,94.4334 345.383,120.767 379,175.5C 399.482,215.303 403.149,256.636 390,299.5C 371.943,347.89 338.443,380.39 289.5,397C 226.371,413.264 172.537,397.764 128,350.5C 89.2611,301.724 80.9277,248.057 103,189.5C 128.957,135.111 171.79,104.111 231.5,96.5 Z M 253.5,122.5 C 252.167,122.5 250.833,122.5 249.5,122.5C 249.5,123.833 249.5,125.167 249.5,126.5C 250.5,126.5 251.5,126.5 252.5,126.5C 251.791,127.404 250.791,127.737 249.5,127.5C 248.223,128.317 247.89,126.317 248.5,121.5C 250.415,121.216 252.081,121.549 253.5,122.5 Z M 232.5,122.5 C 231.89,123.391 231.557,124.391 231.5,125.5C 230.115,124.053 230.448,123.053 232.5,122.5 Z M 253.5,122.5 C 256.218,124.423 255.884,125.756 252.5,126.5C 253.234,125.292 253.567,123.959 253.5,122.5 Z M 267.5,123.5 C 268.518,126.377 268.351,129.377 267,132.5C 266.699,129.493 266.865,126.493 267.5,123.5 Z M 215.5,125.5 C 216.833,125.5 217.5,126.167 217.5,127.5C 216.5,127.167 215.833,126.5 215.5,125.5 Z M 231.5,125.5 C 235.151,125.229 236.485,126.563 235.5,129.5C 234.63,127.726 233.297,126.393 231.5,125.5 Z M 211.5,126.5 C 210.425,130.938 212.092,132.938 216.5,132.5C 210.749,134.256 209.082,132.256 211.5,126.5 Z M 280.5,126.5 C 282.767,127.423 285.1,128.256 287.5,129C 286.207,129.49 284.873,129.657 283.5,129.5C 283.567,131.401 283.233,133.234 282.5,135C 282.15,136.257 281.483,136.591 280.5,136C 282.96,132.736 282.96,129.57 280.5,126.5 Z M 217.5,127.5 C 218.93,129.455 218.597,131.121 216.5,132.5C 217.038,130.883 217.371,129.216 217.5,127.5 Z M 196.5,134.5 C 196.185,132.774 196.019,131.107 196,129.5C 197.893,132.267 198.893,135.267 199,138.5C 198.392,136.934 197.558,135.6 196.5,134.5 Z M 194.5,135.5 C 193.833,136.167 193.167,136.833 192.5,137.5C 190.901,136.201 190.401,134.535 191,132.5C 191.422,134.426 192.589,135.426 194.5,135.5 Z M 300.5,136.5 C 300.56,135.957 300.893,135.624 301.5,135.5C 302.788,137.299 302.788,138.965 301.5,140.5C 301.768,138.901 301.434,137.568 300.5,136.5 Z M 192.5,137.5 C 193.267,138.172 193.934,139.005 194.5,140C 192.939,140.188 192.272,139.355 192.5,137.5 Z M 299.5,137.5 C 298.89,138.391 298.557,139.391 298.5,140.5C 297.153,141.028 295.819,141.195 294.5,141C 295.789,139.198 297.456,138.031 299.5,137.5 Z M 298.5,140.5 C 299.5,140.5 300.5,140.5 301.5,140.5C 302.501,141.789 302.334,143.122 301,144.5C 300.52,142.867 299.687,141.534 298.5,140.5 Z M 315.5,145.5 C 315.517,143.972 316.184,143.472 317.5,144C 316.956,144.717 316.289,145.217 315.5,145.5 Z M 167.5,148.5 C 165.915,147.998 165.415,146.998 166,145.5C 167.039,146.244 167.539,147.244 167.5,148.5 Z M 315.5,145.5 C 315.08,147.094 314.414,148.594 313.5,150C 314.272,151.221 315.272,152.221 316.5,153C 310.26,151.806 309.927,149.306 315.5,145.5 Z M 167.5,148.5 C 169.339,149.508 170.672,151.008 171.5,153C 169.417,152.441 168.084,150.941 167.5,148.5 Z M 329.5,154.5 C 330.525,154.897 330.692,155.563 330,156.5C 328.333,158.167 326.667,159.833 325,161.5C 324.333,160.833 324.333,160.167 325,159.5C 326.707,157.963 328.207,156.296 329.5,154.5 Z M 152.5,157.5 C 154.463,158.96 156.296,160.627 158,162.5C 159,161.5 160,160.5 161,159.5C 160.983,161.568 159.983,163.234 158,164.5C 155.546,162.559 153.713,160.225 152.5,157.5 Z M 340.5,164.5 C 341.833,165.167 342.833,166.167 343.5,167.5C 340.666,168.558 337.999,169.724 335.5,171C 337.79,169.223 339.457,167.056 340.5,164.5 Z M 146.5,175.5 C 147.075,172.429 145.909,170.429 143,169.5C 139.88,171.467 139.713,173.801 142.5,176.5C 141.504,176.586 140.671,176.252 140,175.5C 137.906,170.219 139.74,168.052 145.5,169C 147.608,171.016 147.942,173.183 146.5,175.5 Z M 146.5,175.5 C 145.462,177.519 144.128,177.853 142.5,176.5C 143.833,176.167 145.167,175.833 146.5,175.5 Z M 347.5,184.5 C 349.456,182.478 350.956,180.145 352,177.5C 351.981,179.107 351.815,180.774 351.5,182.5C 352.873,182.343 354.207,182.51 355.5,183C 352.793,183.395 350.127,183.895 347.5,184.5 Z M 131.5,185.5 C 129.972,185.483 129.472,184.816 130,183.5C 130.717,184.044 131.217,184.711 131.5,185.5 Z M 131.5,185.5 C 133.027,185.427 134.027,186.094 134.5,187.5C 132.973,187.573 131.973,186.906 131.5,185.5 Z M 153.5,186.5 C 166.327,185.34 179.327,185.173 192.5,186C 185.376,186.124 180.876,189.624 179,196.5C 178.667,234.167 178.333,271.833 178,309.5C 173.743,333.214 159.576,344.381 135.5,343C 132.298,342.453 129.298,341.453 126.5,340C 151.019,342.76 164.519,331.594 167,306.5C 167.667,269.5 167.667,232.5 167,195.5C 164.761,189.092 160.261,186.092 153.5,186.5 Z M 134.5,187.5 C 135.586,187.62 136.253,188.287 136.5,189.5C 136.253,190.713 135.586,191.38 134.5,191.5C 135.833,190.167 135.833,188.833 134.5,187.5 Z M 201.5,205.5 C 199.525,206.646 198.025,208.313 197,210.5C 196.5,220.494 196.334,230.494 196.5,240.5C 210.167,240.5 223.833,240.5 237.5,240.5C 238.689,231.945 238.689,223.445 237.5,215C 237.54,207.497 239.873,200.83 244.5,195C 247.328,193.168 250.328,192.168 253.5,192C 248.791,195.237 245.958,199.737 245,205.5C 244.333,228.167 244.333,250.833 245,273.5C 246.589,276.383 249.089,277.883 252.5,278C 244.833,278.667 237.167,278.667 229.5,278C 232.911,277.883 235.411,276.383 237,273.5C 238.703,263.527 238.87,253.527 237.5,243.5C 223.833,243.5 210.167,243.5 196.5,243.5C 196.925,256.894 196.425,270.227 195,283.5C 192.639,289.881 188.139,293.048 181.5,293C 186.781,289.278 189.614,284.112 190,277.5C 190.667,255.167 190.667,232.833 190,210.5C 189.167,208.333 187.667,206.833 185.5,206C 190.823,205.501 196.156,205.334 201.5,205.5 Z M 345.5,203.5 C 346.833,203.5 348.167,203.5 349.5,203.5C 349.666,207.514 349.499,211.514 349,215.5C 348.883,212.089 347.383,209.589 344.5,208C 337.174,207.5 329.841,207.334 322.5,207.5C 322.333,229.503 322.5,251.503 323,273.5C 324.762,276.268 327.262,277.768 330.5,278C 323.167,278.667 315.833,278.667 308.5,278C 312.547,277.619 315.047,275.453 316,271.5C 316.667,250.5 316.667,229.5 316,208.5C 311.581,207.847 307.081,207.514 302.5,207.5C 297.086,207.412 291.752,207.912 286.5,209C 280.045,212.407 277.878,217.574 280,224.5C 275.8,217.271 277.3,211.437 284.5,207C 288.672,205.437 292.838,204.937 297,205.5C 313.265,204.84 329.431,204.174 345.5,203.5 Z M 365.5,208.5 C 366.386,207.224 367.386,207.224 368.5,208.5C 367.767,209.087 366.767,209.087 365.5,208.5 Z M 365.5,208.5 C 365.5,209.167 365.5,209.833 365.5,210.5C 364.833,211.167 364.167,211.833 363.5,212.5C 363.719,211.325 363.386,210.325 362.5,209.5C 361.604,210.506 360.938,210.506 360.5,209.5C 362.045,208.548 363.712,208.215 365.5,208.5 Z M 363.5,212.5 C 363.369,213.376 363.702,214.043 364.5,214.5C 365.396,213.494 366.062,213.494 366.5,214.5C 364.704,215.141 363.204,216.141 362,217.5C 361.51,216.207 361.343,214.873 361.5,213.5C 362.167,213.167 362.833,212.833 363.5,212.5 Z M 373.5,228.5 C 374.613,229.946 374.78,231.613 374,233.5C 373.751,232.376 373.251,231.376 372.5,230.5C 370.291,231.106 368.124,231.773 366,232.5C 365.833,232.167 365.667,231.833 365.5,231.5C 368.37,230.743 371.036,229.743 373.5,228.5 Z M 369.5,252.5 C 371.199,252.66 372.866,252.494 374.5,252C 375.813,248.308 374.48,246.641 370.5,247C 368.963,248.11 368.297,249.61 368.5,251.5C 367.183,246.655 369.183,244.822 374.5,246C 378.161,252.498 376.495,254.665 369.5,252.5 Z M 255.5,297.5 C 250.289,320.456 259.289,329.956 282.5,326C 292.949,319.724 295.783,310.891 291,299.5C 289.207,296.705 287.04,294.205 284.5,292C 276.083,286.254 268.25,279.754 261,272.5C 256.702,257.155 262.368,248.488 278,246.5C 282.147,247.123 286.314,247.456 290.5,247.5C 290.666,251.514 290.499,255.514 290,259.5C 288.49,252.98 284.324,249.647 277.5,249.5C 269.752,250.08 265.419,254.247 264.5,262C 264.7,265.233 265.867,268.067 268,270.5C 277.973,277.81 287.306,285.81 296,294.5C 304.858,315.447 298.025,327.78 275.5,331.5C 258.145,330.652 250.312,321.652 252,304.5C 252.67,301.826 253.837,299.493 255.5,297.5 Z M 367.5,266.5 C 370.518,266.335 373.518,266.502 376.5,267C 373.854,267.497 371.187,267.664 368.5,267.5C 368.286,269.144 368.62,270.644 369.5,272C 371.577,272.192 373.577,272.692 375.5,273.5C 375.167,273.833 374.833,274.167 374.5,274.5C 372.556,273.811 370.556,273.311 368.5,273C 367.577,270.959 367.244,268.792 367.5,266.5 Z M 371.5,290.5 C 371.5,289.5 371.5,288.5 371.5,287.5C 370.5,287.5 369.5,287.5 368.5,287.5C 368.5,288.833 368.5,290.167 368.5,291.5C 367.533,290.194 366.199,289.527 364.5,289.5C 368.223,288.206 368.223,287.039 364.5,286C 367.157,285.825 369.824,285.992 372.5,286.5C 372.768,288.099 372.434,289.432 371.5,290.5 Z M 364.5,289.5 C 364.217,290.289 363.717,290.956 363,291.5C 362.472,290.184 362.972,289.517 364.5,289.5 Z M 257.5,294.5 C 257.573,296.027 256.906,297.027 255.5,297.5C 255.427,295.973 256.094,294.973 257.5,294.5 Z M 358.5,303.5 C 358.5,304.5 358.5,305.5 358.5,306.5C 359.5,306.5 360.5,306.5 361.5,306.5C 360.998,308.085 359.998,308.585 358.5,308C 357.199,306.384 357.199,304.884 358.5,303.5 Z M 362.5,305.5 C 363.251,304.427 364.251,304.26 365.5,305C 366.774,305.977 366.774,306.811 365.5,307.5C 365.027,306.094 364.027,305.427 362.5,305.5 Z M 365.5,307.5 C 365.483,309.028 364.816,309.528 363.5,309C 364.044,308.283 364.711,307.783 365.5,307.5 Z"/></g>
<g><path style="opacity:0.511" fill="#020202" d="M 253.5,122.5 C 253.567,123.959 253.234,125.292 252.5,126.5C 251.5,126.5 250.5,126.5 249.5,126.5C 249.5,125.167 249.5,123.833 249.5,122.5C 250.833,122.5 252.167,122.5 253.5,122.5 Z"/></g>
<g><path style="opacity:0.741" fill="#030303" d="M 212.5,125.5 C 213.5,125.5 214.5,125.5 215.5,125.5C 215.833,126.5 216.5,127.167 217.5,127.5C 217.371,129.216 217.038,130.883 216.5,132.5C 212.092,132.938 210.425,130.938 211.5,126.5C 212.167,126.5 212.5,126.167 212.5,125.5 Z"/></g>
<g><path style="opacity:0.383" fill="#000000" d="M 300.5,136.5 C 301.434,137.568 301.768,138.901 301.5,140.5C 300.5,140.5 299.5,140.5 298.5,140.5C 298.557,139.391 298.89,138.391 299.5,137.5C 300.167,137.5 300.5,137.167 300.5,136.5 Z"/></g>
<g><path style="opacity:0.784" fill="#010101" d="M 146.5,175.5 C 145.167,175.833 143.833,176.167 142.5,176.5C 139.713,173.801 139.88,171.467 143,169.5C 145.909,170.429 147.075,172.429 146.5,175.5 Z"/></g>
<g><path style="opacity:0.803" fill="#030303" d="M 369.5,252.5 C 369.5,251.833 369.167,251.5 368.5,251.5C 368.297,249.61 368.963,248.11 370.5,247C 374.48,246.641 375.813,248.308 374.5,252C 372.866,252.494 371.199,252.66 369.5,252.5 Z"/></g>
<g><path style="opacity:0.663" fill="#050404" d="M 371.5,290.5 C 370.833,290.5 370.5,290.833 370.5,291.5C 369.833,291.5 369.167,291.5 368.5,291.5C 368.5,290.167 368.5,288.833 368.5,287.5C 369.5,287.5 370.5,287.5 371.5,287.5C 371.5,288.5 371.5,289.5 371.5,290.5 Z"/></g>
</svg>
