<?xml version="1.0" encoding="UTF-8"?>
<!DOCTYPE svg PUBLIC "-//W3C//DTD SVG 1.1//EN" "http://www.w3.org/Graphics/SVG/1.1/DTD/svg11.dtd">
<svg xmlns="http://www.w3.org/2000/svg" version="1.1" width="500px" height="500px" style="shape-rendering:geometricPrecision; text-rendering:geometricPrecision; image-rendering:optimizeQuality; fill-rule:evenodd; clip-rule:evenodd" xmlns:xlink="http://www.w3.org/1999/xlink">
<g><path style="opacity:1" fill="#83c4ca" d="M 162.5,100.5 C 164.371,100.859 165.871,101.859 167,103.5C 168.862,107.419 170.529,111.419 172,115.5C 173.857,113.234 175.524,113.568 177,116.5C 181.14,117.661 185.306,118.661 189.5,119.5C 190.386,120.325 190.719,121.325 190.5,122.5C 184.601,122.282 178.934,123.116 173.5,125C 174.758,129.465 175.925,133.965 177,138.5C 179.576,139.461 181.743,140.961 183.5,143C 180.792,143.236 178.292,144.069 176,145.5C 173.701,144.621 171.701,145.288 170,147.5C 169.333,146.167 169.333,144.833 170,143.5C 171.084,142.335 171.917,141.002 172.5,139.5C 170.536,135.246 168.869,130.912 167.5,126.5C 161.965,128.265 156.632,130.598 151.5,133.5C 151.167,133 150.833,132.5 150.5,132C 153.284,128.213 156.451,124.713 160,121.5C 160.219,120.062 160.719,118.729 161.5,117.5C 162.086,117.709 162.586,118.043 163,118.5C 162.84,114.178 162.34,109.844 161.5,105.5C 161.592,103.742 161.925,102.076 162.5,100.5 Z"/></g>
<g><path style="opacity:0.782" fill="#7b7f89" d="M 181.5,167.5 C 180.523,170.287 180.19,173.287 180.5,176.5C 179.481,168.277 178.648,159.944 178,151.5C 179.996,156.648 181.163,161.981 181.5,167.5 Z"/></g>
<g><path style="opacity:0.989" fill="#3a4150" d="M 181.5,167.5 C 183.529,179.089 183.862,190.756 182.5,202.5C 181.71,203.609 181.21,204.942 181,206.5C 180.503,203.854 180.336,201.187 180.5,198.5C 180.5,191.167 180.5,183.833 180.5,176.5C 180.19,173.287 180.523,170.287 181.5,167.5 Z"/></g>
<g><path style="opacity:1" fill="#585c6d" d="M 180.5,198.5 C 180.336,201.187 180.503,203.854 181,206.5C 181.21,204.942 181.71,203.609 182.5,202.5C 182.151,209.607 181.151,216.607 179.5,223.5C 178.596,222.791 178.263,221.791 178.5,220.5C 178.796,212.986 179.462,205.653 180.5,198.5 Z"/></g>
<g><path style="opacity:0.598" fill="#94979d" d="M 178.5,220.5 C 178.263,221.791 178.596,222.791 179.5,223.5C 178.978,226.568 178.145,229.568 177,232.5C 176.721,228.3 177.221,224.3 178.5,220.5 Z"/></g>
<g><path style="opacity:1" fill="#566375" d="M 360.5,223.5 C 361.833,223.5 363.167,223.5 364.5,223.5C 364.5,233.833 364.5,244.167 364.5,254.5C 363.167,254.5 361.833,254.5 360.5,254.5C 360.5,244.167 360.5,233.833 360.5,223.5 Z"/></g>
<g><path style="opacity:1" fill="#4f5964" d="M 208.5,226.5 C 209.833,226.5 211.167,226.5 212.5,226.5C 212.99,228.948 212.157,230.615 210,231.5C 207.389,230.5 206.889,228.833 208.5,226.5 Z"/></g>
<g><path style="opacity:0.514" fill="#8d939d" d="M 236.5,228.5 C 237.209,227.596 238.209,227.263 239.5,227.5C 239.5,229.5 239.5,231.5 239.5,233.5C 241.288,233.215 242.955,233.548 244.5,234.5C 244.376,235.107 244.043,235.44 243.5,235.5C 242.081,234.549 240.415,234.216 238.5,234.5C 238.975,231.918 238.308,229.918 236.5,228.5 Z"/></g>
<g><path style="opacity:1" fill="#3b4559" d="M 191.5,224.5 C 192.833,224.5 194.167,224.5 195.5,224.5C 195.5,234.833 195.5,245.167 195.5,255.5C 194.167,255.5 192.833,255.5 191.5,255.5C 191.5,245.167 191.5,234.833 191.5,224.5 Z"/></g>
<g><path style="opacity:0.675" fill="#95999e" d="M 319.5,237.5 C 319.869,235.007 319.203,234.34 317.5,235.5C 318.204,233.656 319.537,233.156 321.5,234C 320.915,235.302 320.249,236.469 319.5,237.5 Z"/></g>
<g><path style="opacity:0.996" fill="#485160" d="M 169.5,233.5 C 180.725,236.35 183.558,243.017 178,253.5C 173,257.5 168,257.5 163,253.5C 158.147,244.227 160.313,237.56 169.5,233.5 Z M 168.5,237.5 C 174.928,238.331 177.428,241.998 176,248.5C 174.666,252.104 172.166,253.271 168.5,252C 164.876,249.839 163.709,246.672 165,242.5C 165.997,240.677 167.164,239.01 168.5,237.5 Z"/></g>
<g><path style="opacity:1" fill="#585e6a" d="M 290.5,237.5 C 289.075,235.969 288.409,236.302 288.5,238.5C 286.918,237.124 285.085,236.124 283,235.5C 280.409,236.434 278.076,237.767 276,239.5C 275.5,239.167 275,238.833 274.5,238.5C 278.48,232.754 283.48,231.588 289.5,235C 290.252,235.671 290.586,236.504 290.5,237.5 Z"/></g>
<g><path style="opacity:0.953" fill="#525a65" d="M 346.5,236.5 C 345.508,236.328 344.842,236.662 344.5,237.5C 338.847,234.49 335.18,236.157 333.5,242.5C 333.5,242.833 333.5,243.167 333.5,243.5C 332.883,243.389 332.383,243.056 332,242.5C 331.2,245.021 331.367,246.688 332.5,247.5C 332.833,247.5 333.167,247.5 333.5,247.5C 337.029,253.367 341.529,254.034 347,249.5C 347.5,249.833 348,250.167 348.5,250.5C 344.897,255.605 340.23,256.772 334.5,254C 329.536,247.994 329.202,241.661 333.5,235C 338.318,231.678 342.651,232.178 346.5,236.5 Z"/></g>
<g><path style="opacity:1" fill="#636870" d="M 379.5,240.5 C 378.71,239.391 378.21,238.058 378,236.5C 377.505,238.473 377.338,240.473 377.5,242.5C 375.651,233.756 378.985,231.089 387.5,234.5C 388.386,235.325 388.719,236.325 388.5,237.5C 386.418,237.528 384.584,236.861 383,235.5C 380.444,236.219 379.277,237.886 379.5,240.5 Z"/></g>
<g><path style="opacity:0.251" fill="#afb3ba" d="M 236.5,233.5 C 235.391,234.29 234.058,234.79 232.5,235C 234.058,235.21 235.391,235.71 236.5,236.5C 234.833,236.5 233.167,236.5 231.5,236.5C 231.5,235.5 231.5,234.5 231.5,233.5C 233.167,233.5 234.833,233.5 236.5,233.5 Z"/></g>
<g><path style="opacity:1" fill="#5d636e" d="M 257.5,240.5 C 257.313,238.436 256.813,236.436 256,234.5C 255.5,241.158 255.334,247.825 255.5,254.5C 254.509,247.687 254.175,240.687 254.5,233.5C 256.124,233.36 257.29,234.027 258,235.5C 260.228,233.887 262.728,233.22 265.5,233.5C 265.5,234.5 265.5,235.5 265.5,236.5C 262.038,236.526 259.371,237.859 257.5,240.5 Z"/></g>
<g><path style="opacity:1" fill="#707681" d="M 306.5,238.5 C 304.797,237.34 304.131,238.007 304.5,240.5C 303.136,238.78 302.136,236.78 301.5,234.5C 304.706,233.421 306.373,234.754 306.5,238.5 Z"/></g>
<g><path style="opacity:1" fill="#3d475a" d="M 139.5,255.5 C 139.263,254.209 139.596,253.209 140.5,252.5C 142.39,252.703 143.89,252.037 145,250.5C 145.5,241.84 145.666,233.173 145.5,224.5C 146.833,224.5 148.167,224.5 149.5,224.5C 149.666,233.839 149.5,243.173 149,252.5C 146.423,256.068 143.256,257.068 139.5,255.5 Z"/></g>
<g><path style="opacity:0.751" fill="#707886" d="M 211.5,255.5 C 210.833,228.833 210.167,228.833 209.5,255.5C 208.509,248.687 208.175,241.687 208.5,234.5C 209.833,234.5 211.167,234.5 212.5,234.5C 212.825,241.687 212.491,248.687 211.5,255.5 Z"/></g>
<g><path style="opacity:0.998" fill="#101f34" d="M 211.5,255.5 C 210.833,255.5 210.167,255.5 209.5,255.5C 210.167,228.833 210.833,228.833 211.5,255.5 Z"/></g>
<g><path style="opacity:1" fill="#212b3b" d="M 236.5,228.5 C 238.308,229.918 238.975,231.918 238.5,234.5C 240.415,234.216 242.081,234.549 243.5,235.5C 241.833,235.5 240.167,235.5 238.5,235.5C 238.5,241.833 238.5,248.167 238.5,254.5C 236.547,248.926 235.88,242.926 236.5,236.5C 235.391,235.71 234.058,235.21 232.5,235C 234.058,234.79 235.391,234.29 236.5,233.5C 236.5,231.833 236.5,230.167 236.5,228.5 Z"/></g>
<g><path style="opacity:0.516" fill="#8e97a4" d="M 243.5,235.5 C 242.432,236.434 241.099,236.768 239.5,236.5C 239.823,242.69 239.49,248.69 238.5,254.5C 238.5,248.167 238.5,241.833 238.5,235.5C 240.167,235.5 241.833,235.5 243.5,235.5 Z"/></g>
<g><path style="opacity:1" fill="#1b1f2b" d="M 278.5,242.5 C 278.833,242.5 279.167,242.5 279.5,242.5C 282.187,242.336 284.854,242.503 287.5,243C 284.635,243.183 281.969,243.683 279.5,244.5C 277.302,244.591 276.969,243.925 278.5,242.5 Z"/></g>
<g><path style="opacity:1" fill="#57616f" d="M 319.5,237.5 C 317.959,243.836 315.292,249.503 311.5,254.5C 310.558,254.392 309.725,254.059 309,253.5C 307.193,249.244 305.693,244.911 304.5,240.5C 304.131,238.007 304.797,237.34 306.5,238.5C 308.09,242.098 309.59,245.764 311,249.5C 313.278,244.808 315.445,240.141 317.5,235.5C 319.203,234.34 319.869,235.007 319.5,237.5 Z"/></g>
<g><path style="opacity:0.184" fill="#cbd7df" d="M 345.5,239.5 C 346.434,240.568 346.768,241.901 346.5,243.5C 342.167,243.5 337.833,243.5 333.5,243.5C 333.5,243.167 333.5,242.833 333.5,242.5C 337.5,242.5 341.5,242.5 345.5,242.5C 345.5,241.5 345.5,240.5 345.5,239.5 Z"/></g>
<g><path style="opacity:1" fill="#222b39" d="M 346.5,236.5 C 348.213,237.635 348.88,239.302 348.5,241.5C 348.5,242.5 348.5,243.5 348.5,244.5C 343.167,244.5 337.833,244.5 332.5,244.5C 332.5,245.5 332.5,246.5 332.5,247.5C 331.367,246.688 331.2,245.021 332,242.5C 332.383,243.056 332.883,243.389 333.5,243.5C 337.833,243.5 342.167,243.5 346.5,243.5C 346.768,241.901 346.434,240.568 345.5,239.5C 344.662,239.158 344.328,238.492 344.5,237.5C 344.842,236.662 345.508,236.328 346.5,236.5 Z"/></g>
<g><path style="opacity:1" fill="#434855" d="M 379.5,240.5 C 382.887,241.615 385.887,243.282 388.5,245.5C 388.66,247.199 388.494,248.866 388,250.5C 387.768,249.263 387.268,248.263 386.5,247.5C 383.113,246.385 380.113,244.718 377.5,242.5C 377.338,240.473 377.505,238.473 378,236.5C 378.21,238.058 378.71,239.391 379.5,240.5 Z"/></g>
<g><path style="opacity:1" fill="#737b8c" d="M 278.5,242.5 C 276.969,243.925 277.302,244.591 279.5,244.5C 277.919,246.142 277.253,248.142 277.5,250.5C 276.698,249.048 276.198,247.382 276,245.5C 275.617,246.056 275.117,246.389 274.5,246.5C 274.833,244.167 276.167,242.833 278.5,242.5 Z"/></g>
<g><path style="opacity:0.439" fill="#97a1ac" d="M 348.5,241.5 C 349.434,242.568 349.768,243.901 349.5,245.5C 343.729,244.887 338.396,245.554 333.5,247.5C 333.167,247.5 332.833,247.5 332.5,247.5C 332.5,246.5 332.5,245.5 332.5,244.5C 337.833,244.5 343.167,244.5 348.5,244.5C 348.5,243.5 348.5,242.5 348.5,241.5 Z"/></g>
<g><path style="opacity:0.6" fill="#8d95a1" d="M 279.5,242.5 C 282.287,241.523 285.287,241.19 288.5,241.5C 289.756,243.941 289.756,246.274 288.5,248.5C 288.5,247.167 288.5,245.833 288.5,244.5C 285.5,244.5 282.5,244.5 279.5,244.5C 281.969,243.683 284.635,243.183 287.5,243C 284.854,242.503 282.187,242.336 279.5,242.5 Z"/></g>
<g><path style="opacity:1" fill="#373d50" d="M 290.5,237.5 C 291.326,241.982 291.826,246.649 292,251.5C 292.692,252.025 293.192,252.692 293.5,253.5C 292.042,254.782 290.708,254.782 289.5,253.5C 289.423,252.25 288.756,251.417 287.5,251C 288.252,250.329 288.586,249.496 288.5,248.5C 289.756,246.274 289.756,243.941 288.5,241.5C 288.5,240.5 288.5,239.5 288.5,238.5C 288.409,236.302 289.075,235.969 290.5,237.5 Z"/></g>
<g><path style="opacity:1" fill="#2f3648" d="M 257.5,240.5 C 258.103,245.619 257.436,250.285 255.5,254.5C 255.334,247.825 255.5,241.158 256,234.5C 256.813,236.436 257.313,238.436 257.5,240.5 Z"/></g>
<g><path style="opacity:1" fill="#6e767e" d="M 388.5,245.5 C 389.152,246.449 389.486,247.615 389.5,249C 389.693,251.008 389.026,252.508 387.5,253.5C 387.631,252.761 387.464,252.094 387,251.5C 386.329,252.252 385.496,252.586 384.5,252.5C 385.942,251.18 386.608,249.514 386.5,247.5C 387.268,248.263 387.768,249.263 388,250.5C 388.494,248.866 388.66,247.199 388.5,245.5 Z"/></g>
<g><path style="opacity:0.99" fill="#808690" d="M 288.5,248.5 C 288.586,249.496 288.252,250.329 287.5,251C 288.756,251.417 289.423,252.25 289.5,253.5C 288.883,253.389 288.383,253.056 288,252.5C 287.184,253.823 286.017,254.489 284.5,254.5C 286.031,253.075 285.698,252.409 283.5,252.5C 285.142,251.197 286.809,249.864 288.5,248.5 Z"/></g>
<g><path style="opacity:1" fill="#4d5362" d="M 277.5,250.5 C 279.142,252.081 281.142,252.747 283.5,252.5C 285.698,252.409 286.031,253.075 284.5,254.5C 277.098,256.409 273.764,253.743 274.5,246.5C 275.117,246.389 275.617,246.056 276,245.5C 276.198,247.382 276.698,249.048 277.5,250.5 Z"/></g>
<g><path style="opacity:0.933" fill="#757884" d="M 380.5,252.5 C 378.302,252.409 377.969,253.075 379.5,254.5C 375.994,253.884 375.161,252.217 377,249.5C 378.145,250.636 379.312,251.636 380.5,252.5 Z"/></g>
<g><path style="opacity:0.227" fill="#d9dce3" d="M 140.5,252.5 C 139.596,253.209 139.263,254.209 139.5,255.5C 138.218,254.292 138.218,252.958 139.5,251.5C 140.107,251.624 140.44,251.957 140.5,252.5 Z"/></g>
<g><path style="opacity:1" fill="#4f5562" d="M 387.5,253.5 C 385.119,255.64 382.452,255.973 379.5,254.5C 377.969,253.075 378.302,252.409 380.5,252.5C 381.833,252.5 383.167,252.5 384.5,252.5C 385.496,252.586 386.329,252.252 387,251.5C 387.464,252.094 387.631,252.761 387.5,253.5 Z"/></g>
<g><path style="opacity:0.787" fill="#c4a6c6" d="M 194.5,261.5 C 260.309,261.004 325.976,261.504 391.5,263C 325.5,263.667 259.5,263.667 193.5,263C 194.056,262.617 194.389,262.117 194.5,261.5 Z"/></g>
<g><path style="opacity:0.007" fill="#fefffe" d="M 387.5,269.5 C 323.833,269.5 260.167,269.5 196.5,269.5C 201.05,267.168 205.883,266.834 211,268.5C 217.135,267.257 223.302,266.257 229.5,265.5C 257.451,266.815 285.451,266.815 313.5,265.5C 329.733,265.46 345.9,266.46 362,268.5C 370.103,265.725 378.269,265.225 386.5,267C 387.252,267.671 387.586,268.504 387.5,269.5 Z"/></g>
<g><path style="opacity:1" fill="#ba8bc2" d="M 167.5,268.5 C 167.813,265.753 167.48,263.086 166.5,260.5C 164.711,263.123 162.711,265.456 160.5,267.5C 161.38,264.738 162.546,262.071 164,259.5C 165.11,257.963 166.61,257.297 168.5,257.5C 168.815,261.371 168.482,265.038 167.5,268.5 Z"/></g>
<g><path style="opacity:0.767" fill="#bedcde" d="M 196.5,269.5 C 260.167,269.5 323.833,269.5 387.5,269.5C 388.675,269.281 389.675,269.614 390.5,270.5C 390.376,271.107 390.043,271.44 389.5,271.5C 324.5,271.5 259.5,271.5 194.5,271.5C 193.624,271.631 192.957,271.298 192.5,270.5C 193.689,269.571 195.022,269.238 196.5,269.5 Z"/></g>
<g><path style="opacity:0.012" fill="#fefffe" d="M 194.5,271.5 C 259.5,271.5 324.5,271.5 389.5,271.5C 389.082,272.222 388.416,272.722 387.5,273C 387.957,273.414 388.291,273.914 388.5,274.5C 387.37,275.622 386.703,276.956 386.5,278.5C 380.833,278.5 375.167,278.5 369.5,278.5C 365.167,277.167 360.833,277.167 356.5,278.5C 302.5,278.5 248.5,278.5 194.5,278.5C 195.089,276.648 195.756,274.815 196.5,273C 195.584,272.722 194.918,272.222 194.5,271.5 Z"/></g>
<g><path style="opacity:0.988" fill="#be8bc6" d="M 160.5,267.5 C 160.5,269.5 160.5,271.5 160.5,273.5C 155.519,273.552 150.852,274.719 146.5,277C 149.753,278.036 153.086,278.703 156.5,279C 157.38,280.356 157.714,281.856 157.5,283.5C 156.797,285.629 155.797,287.629 154.5,289.5C 154.62,286.52 155.287,283.687 156.5,281C 150.649,279.92 144.982,278.42 139.5,276.5C 144.04,274.891 148.706,273.725 153.5,273C 154.667,269.833 156.167,269.667 158,272.5C 158.757,270.685 159.59,269.019 160.5,267.5 Z"/></g>
<g><path style="opacity:1" fill="#b967c7" d="M 167.5,268.5 C 167.5,268.833 167.5,269.167 167.5,269.5C 165.974,270.492 165.307,271.992 165.5,274C 165.395,276.873 166.728,278.373 169.5,278.5C 170.434,280.239 170.434,281.905 169.5,283.5C 167.249,282.305 164.915,281.305 162.5,280.5C 161.781,282.517 160.614,284.183 159,285.5C 157.97,285.164 157.47,284.497 157.5,283.5C 157.714,281.856 157.38,280.356 156.5,279C 153.086,278.703 149.753,278.036 146.5,277C 150.852,274.719 155.519,273.552 160.5,273.5C 160.5,271.5 160.5,269.5 160.5,267.5C 162.711,265.456 164.711,263.123 166.5,260.5C 167.48,263.086 167.813,265.753 167.5,268.5 Z"/></g>
<g><path style="opacity:0.992" fill="#c093c7" d="M 167.5,269.5 C 166.986,271.512 166.82,273.512 167,275.5C 167.414,275.043 167.914,274.709 168.5,274.5C 169.429,275.689 169.762,277.022 169.5,278.5C 166.728,278.373 165.395,276.873 165.5,274C 165.307,271.992 165.974,270.492 167.5,269.5 Z"/></g>
<g><path style="opacity:0.675" fill="#d2bed3" d="M 194.5,278.5 C 248.5,278.5 302.5,278.5 356.5,278.5C 360.833,278.5 365.167,278.5 369.5,278.5C 375.167,278.5 380.833,278.5 386.5,278.5C 388.288,278.215 389.955,278.548 391.5,279.5C 390.311,280.429 388.978,280.762 387.5,280.5C 323.167,280.5 258.833,280.5 194.5,280.5C 193.167,279.833 193.167,279.167 194.5,278.5 Z"/></g>
<g><path style="opacity:0.015" fill="#fefffe" d="M 194.5,280.5 C 258.833,280.5 323.167,280.5 387.5,280.5C 387.586,281.496 387.252,282.329 386.5,283C 357.541,284.92 328.541,285.753 299.5,285.5C 266.162,285.333 232.828,284.833 199.5,284C 197.654,282.97 195.987,281.804 194.5,280.5 Z"/></g>
<g><path style="opacity:0.048" fill="#cde4e5" d="M 192.5,287.5 C 258.335,286.168 324.335,286.168 390.5,287.5C 324.432,288.829 258.432,288.829 192.5,287.5 Z"/></g>
<g><path style="opacity:1" fill="#bb7cc4" d="M 169.5,278.5 C 172.602,282.104 175.935,285.604 179.5,289C 179,289.5 178.5,290 178,290.5C 173.473,287.903 168.806,285.57 164,283.5C 160.995,287.505 158.495,291.839 156.5,296.5C 156.5,297.5 156.5,298.5 156.5,299.5C 154.571,299.769 152.905,299.269 151.5,298C 152.823,297.184 153.489,296.017 153.5,294.5C 153.366,292.708 153.699,291.042 154.5,289.5C 155.797,287.629 156.797,285.629 157.5,283.5C 157.47,284.497 157.97,285.164 159,285.5C 160.614,284.183 161.781,282.517 162.5,280.5C 164.915,281.305 167.249,282.305 169.5,283.5C 170.434,281.905 170.434,280.239 169.5,278.5 Z"/></g>
<g><path style="opacity:0.98" fill="#c69fcc" d="M 153.5,294.5 C 153.489,296.017 152.823,297.184 151.5,298C 152.905,299.269 154.571,299.769 156.5,299.5C 156.5,298.5 156.5,297.5 156.5,296.5C 158.166,298.187 159.5,300.187 160.5,302.5C 160,302.833 159.5,303.167 159,303.5C 157.667,302.833 156.333,302.167 155,301.5C 154.228,301.645 153.561,301.978 153,302.5C 151.333,300.372 149.166,299.039 146.5,298.5C 148.698,296.902 151.031,295.569 153.5,294.5 Z"/></g>
<g><path style="opacity:1" fill="#555b67" d="M 110.5,361.5 C 109.662,361.158 109.328,360.492 109.5,359.5C 125.401,343.772 139.234,326.438 151,307.5C 142.14,328.845 128.64,346.845 110.5,361.5 Z"/></g>
<g><path style="opacity:0.818" fill="#94969c" d="M 109.5,359.5 C 109.328,360.492 109.662,361.158 110.5,361.5C 107.008,364.842 103.175,367.842 99,370.5C 101.83,366.495 105.33,362.829 109.5,359.5 Z"/></g>
</svg>
