<?xml version="1.0" encoding="UTF-8"?>
<!DOCTYPE svg PUBLIC "-//W3C//DTD SVG 1.1//EN" "http://www.w3.org/Graphics/SVG/1.1/DTD/svg11.dtd">
<svg xmlns="http://www.w3.org/2000/svg" version="1.1" width="500px" height="500px" style="shape-rendering:geometricPrecision; text-rendering:geometricPrecision; image-rendering:optimizeQuality; fill-rule:evenodd; clip-rule:evenodd" xmlns:xlink="http://www.w3.org/1999/xlink">
<g><path style="opacity:1" fill="#a3d8ee" d="M 131.5,175.5 C 130.5,175.5 129.5,175.5 128.5,175.5C 125.507,172.499 122.841,169.165 120.5,165.5C 119.311,164.571 117.978,164.238 116.5,164.5C 117.406,162.086 119.072,161.253 121.5,162C 125.95,165.758 129.283,170.258 131.5,175.5 Z"/></g>
<g><path style="opacity:1" fill="#2196d1" d="M 116.5,164.5 C 117.978,164.238 119.311,164.571 120.5,165.5C 122.841,169.165 125.507,172.499 128.5,175.5C 135.588,186.009 142.921,196.342 150.5,206.5C 147.205,207.824 145.872,206.491 146.5,202.5C 145.022,202.762 143.689,202.429 142.5,201.5C 138.835,196.841 135.668,191.841 133,186.5C 131.383,184.237 129.55,182.237 127.5,180.5C 124.169,177.183 121.835,173.183 120.5,168.5C 118.105,167.477 117.105,168.477 117.5,171.5C 116.609,169.709 115.609,167.876 114.5,166C 115.044,165.283 115.711,164.783 116.5,164.5 Z"/></g>
<g><path style="opacity:0.831" fill="#b9c5cb" d="M 391.5,180.5 C 391.5,179.167 390.833,178.5 389.5,178.5C 392.55,174.811 396.55,172.978 401.5,173C 415.91,166.628 429.91,159.462 443.5,151.5C 449.419,148.046 455.752,145.379 462.5,143.5C 463.5,143.833 464.5,144.167 465.5,144.5C 440.754,156.541 416.087,168.541 391.5,180.5 Z"/></g>
<g><path style="opacity:1" fill="#d6e3e9" d="M 443.5,151.5 C 429.91,159.462 415.91,166.628 401.5,173C 396.55,172.978 392.55,174.811 389.5,178.5C 384.139,182.342 378.139,184.842 371.5,186C 373.895,188.145 376.062,187.978 378,185.5C 378.399,185.728 378.565,186.062 378.5,186.5C 379.306,187.728 380.306,188.728 381.5,189.5C 378.763,189.401 376.096,189.735 373.5,190.5C 372.833,191.167 372.167,191.833 371.5,192.5C 370.167,192.5 368.833,192.5 367.5,192.5C 371.748,190.96 372.415,188.46 369.5,185C 372.478,184.304 375.478,183.804 378.5,183.5C 378.5,182.5 378.5,181.5 378.5,180.5C 399.88,169.972 421.546,160.306 443.5,151.5 Z"/></g>
<g><path style="opacity:1" fill="#5e8cb4" d="M 121.5,179.5 C 123.256,180.552 123.923,182.219 123.5,184.5C 122.069,183.22 121.402,181.553 121.5,179.5 Z"/></g>
<g><path style="opacity:1" fill="#7fc6e8" d="M 128.5,175.5 C 129.5,175.5 130.5,175.5 131.5,175.5C 131.351,176.552 131.517,177.552 132,178.5C 139.078,188.064 145.911,197.731 152.5,207.5C 151.833,207.167 151.167,206.833 150.5,206.5C 142.921,196.342 135.588,186.009 128.5,175.5 Z"/></g>
<g><path style="opacity:0.31" fill="#ccecf9" d="M 131.5,175.5 C 141.347,189.186 151.681,202.52 162.5,215.5C 160.745,214.928 159.078,214.094 157.5,213C 156.167,210.809 154.5,208.976 152.5,207.5C 145.911,197.731 139.078,188.064 132,178.5C 131.517,177.552 131.351,176.552 131.5,175.5 Z"/></g>
<g><path style="opacity:1" fill="#fcfdfd" d="M 319.5,195.5 C 318.07,196.537 316.403,197.204 314.5,197.5C 313.425,196.438 312.425,196.438 311.5,197.5C 312.326,198.451 312.492,199.451 312,200.5C 309.263,199.39 306.429,199.223 303.5,200C 304.167,200.333 304.833,200.667 305.5,201C 299.843,201.499 294.176,201.666 288.5,201.5C 288.881,203.942 288.214,204.609 286.5,203.5C 285.692,203.808 285.025,204.308 284.5,205C 279.054,205.101 273.721,205.768 268.5,207C 271.377,208.127 274.377,208.794 277.5,209C 276.062,209.219 274.729,209.719 273.5,210.5C 266.145,210.227 258.812,210.727 251.5,212C 248.257,212.625 245.257,213.791 242.5,215.5C 239.096,215.659 235.929,215.326 233,214.5C 231.933,215.191 230.766,215.691 229.5,216C 231.271,216.535 231.604,217.369 230.5,218.5C 228.821,219.782 226.987,220.782 225,221.5C 224.692,220.692 224.192,220.025 223.5,219.5C 219.917,222.269 216.584,222.102 213.5,219C 215.514,217.204 217.681,216.704 220,217.5C 222.192,215.765 224.692,214.598 227.5,214C 226.672,213.085 225.672,212.419 224.5,212C 230.951,210.443 236.951,207.776 242.5,204C 249.543,202.911 256.543,201.578 263.5,200C 266.014,198.628 268.347,197.128 270.5,195.5C 294.93,191.071 319.264,186.738 343.5,182.5C 348.262,182.845 352.929,183.678 357.5,185C 356.391,185.638 355.225,186.138 354,186.5C 351.88,185.541 349.713,185.374 347.5,186C 344.232,188.032 341.399,190.199 339,192.5C 337.278,192.389 337.112,191.889 338.5,191C 333.374,190.326 328.54,191.159 324,193.5C 321.425,191.62 319.925,192.287 319.5,195.5 Z"/></g>
<g><path style="opacity:0.963" fill="#77868f" d="M 389.5,178.5 C 390.833,178.5 391.5,179.167 391.5,180.5C 390.972,181.721 390.305,182.887 389.5,184C 385.986,185.562 382.319,186.395 378.5,186.5C 378.565,186.062 378.399,185.728 378,185.5C 376.062,187.978 373.895,188.145 371.5,186C 378.139,184.842 384.139,182.342 389.5,178.5 Z"/></g>
<g><path style="opacity:1" fill="#f2f9fd" d="M 378.5,180.5 C 378.5,181.5 378.5,182.5 378.5,183.5C 375.478,183.804 372.478,184.304 369.5,185C 372.415,188.46 371.748,190.96 367.5,192.5C 364.819,192.462 362.319,193.129 360,194.5C 359.235,194.43 358.735,194.097 358.5,193.5C 359.043,193.44 359.376,193.107 359.5,192.5C 357.484,191.306 355.484,191.306 353.5,192.5C 352.833,192.833 352.167,193.167 351.5,193.5C 350.167,193.5 348.833,193.5 347.5,193.5C 344.028,194.532 340.694,195.866 337.5,197.5C 336.914,197.291 336.414,196.957 336,196.5C 333.125,198.406 330.125,200.073 327,201.5C 325.798,199.323 325.298,196.989 325.5,194.5C 323.435,194.517 321.435,194.85 319.5,195.5C 319.925,192.287 321.425,191.62 324,193.5C 328.54,191.159 333.374,190.326 338.5,191C 337.112,191.889 337.278,192.389 339,192.5C 341.399,190.199 344.232,188.032 347.5,186C 349.713,185.374 351.88,185.541 354,186.5C 355.225,186.138 356.391,185.638 357.5,185C 352.929,183.678 348.262,182.845 343.5,182.5C 319.264,186.738 294.93,191.071 270.5,195.5C 298.856,185.25 328.189,179.75 358.5,179C 363.394,179.798 368.061,181.298 372.5,183.5C 374.243,181.962 376.243,180.962 378.5,180.5 Z"/></g>
<g><path style="opacity:1" fill="#494e51" d="M 358.5,193.5 C 356.274,195.18 354.607,194.847 353.5,192.5C 355.484,191.306 357.484,191.306 359.5,192.5C 359.376,193.107 359.043,193.44 358.5,193.5 Z"/></g>
<g><path style="opacity:1" fill="#888b90" d="M 384.5,191.5 C 385.71,191.932 386.71,192.599 387.5,193.5C 385.863,194.218 384.197,194.384 382.5,194C 383.756,193.583 384.423,192.75 384.5,191.5 Z"/></g>
<g><path style="opacity:1" fill="#54585c" d="M 347.5,193.5 C 348.833,193.5 350.167,193.5 351.5,193.5C 352.598,194.397 352.598,195.23 351.5,196C 350.207,196.49 348.873,196.657 347.5,196.5C 347.5,195.5 347.5,194.5 347.5,193.5 Z"/></g>
<g><path style="opacity:1" fill="#ecf3f8" d="M 347.5,193.5 C 347.5,194.5 347.5,195.5 347.5,196.5C 346.319,198.067 344.653,198.901 342.5,199C 343.056,199.383 343.389,199.883 343.5,200.5C 342.178,200.33 341.011,200.663 340,201.5C 339.211,203.712 339.378,205.712 340.5,207.5C 343.391,208.403 346.391,208.736 349.5,208.5C 351.334,209.494 353.001,209.494 354.5,208.5C 358.981,206.562 363.648,205.229 368.5,204.5C 373.197,204.007 374.363,205.674 372,209.5C 370.391,210.147 368.891,210.98 367.5,212C 363.249,212.726 359.249,214.059 355.5,216C 348.418,216.254 341.751,217.921 335.5,221C 332.833,221.667 330.167,221.667 327.5,221C 326.333,220.5 325.5,219.667 325,218.5C 324.22,220.387 324.387,222.054 325.5,223.5C 327.044,229.453 324.71,231.62 318.5,230C 317.733,228.53 317.067,227.03 316.5,225.5C 314.645,222.627 314.312,219.627 315.5,216.5C 317.346,216.778 318.68,216.111 319.5,214.5C 318.675,213.614 317.675,213.281 316.5,213.5C 316.062,213.565 315.728,213.399 315.5,213C 319.825,211.355 320.158,209.855 316.5,208.5C 316.5,209.5 316.5,210.5 316.5,211.5C 315.5,211.5 314.5,211.5 313.5,211.5C 313.784,209.585 313.451,207.919 312.5,206.5C 312.5,205.833 312.5,205.167 312.5,204.5C 313.407,202.343 314.073,200.01 314.5,197.5C 316.403,197.204 318.07,196.537 319.5,195.5C 321.435,194.85 323.435,194.517 325.5,194.5C 325.298,196.989 325.798,199.323 327,201.5C 330.125,200.073 333.125,198.406 336,196.5C 336.414,196.957 336.914,197.291 337.5,197.5C 340.694,195.866 344.028,194.532 347.5,193.5 Z"/></g>
<g><path style="opacity:1" fill="#8d8e90" d="M 373.5,190.5 C 374.478,193.971 376.812,195.805 380.5,196C 373.917,198.794 367.251,201.294 360.5,203.5C 360.5,203.167 360.5,202.833 360.5,202.5C 360.5,202.167 360.5,201.833 360.5,201.5C 365.445,200.629 370.111,198.963 374.5,196.5C 374.121,194.787 373.121,193.787 371.5,193.5C 371.5,193.167 371.5,192.833 371.5,192.5C 372.167,191.833 372.833,191.167 373.5,190.5 Z"/></g>
<g><path style="opacity:1" fill="#2f3131" d="M 371.5,193.5 C 373.121,193.787 374.121,194.787 374.5,196.5C 370.111,198.963 365.445,200.629 360.5,201.5C 361.635,200.526 362.635,199.359 363.5,198C 366.309,196.677 368.975,195.177 371.5,193.5 Z"/></g>
<g><path style="opacity:1" fill="#3b3d40" d="M 381.5,189.5 C 382.5,190.167 383.5,190.833 384.5,191.5C 384.423,192.75 383.756,193.583 382.5,194C 384.197,194.384 385.863,194.218 387.5,193.5C 388.5,193.833 389.167,194.5 389.5,195.5C 382.091,197.709 375.091,200.709 368.5,204.5C 363.648,205.229 358.981,206.562 354.5,208.5C 356.46,206.844 358.46,205.177 360.5,203.5C 367.251,201.294 373.917,198.794 380.5,196C 376.812,195.805 374.478,193.971 373.5,190.5C 376.096,189.735 378.763,189.401 381.5,189.5 Z"/></g>
<g><path style="opacity:1" fill="#7198c4" d="M 129.5,197.5 C 131.256,198.552 131.923,200.219 131.5,202.5C 130.069,201.22 129.402,199.553 129.5,197.5 Z"/></g>
<g><path style="opacity:1" fill="#cfd3d7" d="M 353.5,192.5 C 354.607,194.847 356.274,195.18 358.5,193.5C 358.735,194.097 359.235,194.43 360,194.5C 362.319,193.129 364.819,192.462 367.5,192.5C 363.858,194.224 360.192,196.058 356.5,198C 357.328,199.992 358.661,201.492 360.5,202.5C 360.5,202.833 360.5,203.167 360.5,203.5C 358.46,205.177 356.46,206.844 354.5,208.5C 353.001,209.494 351.334,209.494 349.5,208.5C 349.567,207.041 349.234,205.708 348.5,204.5C 348.213,201.516 346.546,200.183 343.5,200.5C 343.389,199.883 343.056,199.383 342.5,199C 344.653,198.901 346.319,198.067 347.5,196.5C 348.873,196.657 350.207,196.49 351.5,196C 352.598,195.23 352.598,194.397 351.5,193.5C 352.167,193.167 352.833,192.833 353.5,192.5 Z"/></g>
<g><path style="opacity:1" fill="#56595b" d="M 367.5,192.5 C 368.833,192.5 370.167,192.5 371.5,192.5C 371.5,192.833 371.5,193.167 371.5,193.5C 368.975,195.177 366.309,196.677 363.5,198C 362.635,199.359 361.635,200.526 360.5,201.5C 360.5,201.833 360.5,202.167 360.5,202.5C 358.661,201.492 357.328,199.992 356.5,198C 360.192,196.058 363.858,194.224 367.5,192.5 Z"/></g>
<g><path style="opacity:1" fill="#f6fbfe" d="M 270.5,195.5 C 268.347,197.128 266.014,198.628 263.5,200C 256.543,201.578 249.543,202.911 242.5,204C 236.951,207.776 230.951,210.443 224.5,212C 225.672,212.419 226.672,213.085 227.5,214C 224.692,214.598 222.192,215.765 220,217.5C 217.681,216.704 215.514,217.204 213.5,219C 216.584,222.102 219.917,222.269 223.5,219.5C 224.192,220.025 224.692,220.692 225,221.5C 226.987,220.782 228.821,219.782 230.5,218.5C 231.604,217.369 231.271,216.535 229.5,216C 230.766,215.691 231.933,215.191 233,214.5C 235.929,215.326 239.096,215.659 242.5,215.5C 245.257,213.791 248.257,212.625 251.5,212C 258.812,210.727 266.145,210.227 273.5,210.5C 274.729,209.719 276.062,209.219 277.5,209C 274.377,208.794 271.377,208.127 268.5,207C 273.721,205.768 279.054,205.101 284.5,205C 285.025,204.308 285.692,203.808 286.5,203.5C 288.214,204.609 288.881,203.942 288.5,201.5C 294.176,201.666 299.843,201.499 305.5,201C 304.833,200.667 304.167,200.333 303.5,200C 306.429,199.223 309.263,199.39 312,200.5C 312.492,199.451 312.326,198.451 311.5,197.5C 312.425,196.438 313.425,196.438 314.5,197.5C 314.073,200.01 313.407,202.343 312.5,204.5C 308.424,205.144 304.59,206.477 301,208.5C 299.601,208.499 298.101,208.165 296.5,207.5C 296.891,208.718 296.224,209.552 294.5,210C 284.329,211.959 274.829,214.792 266,218.5C 265.667,217.833 265.333,217.167 265,216.5C 256.973,218.834 248.973,221.501 241,224.5C 238.903,224.694 236.737,224.694 234.5,224.5C 225.707,227.219 216.874,229.885 208,232.5C 206.315,230.983 204.815,229.316 203.5,227.5C 204.274,226.289 205.107,226.289 206,227.5C 206.505,225.482 207.005,223.482 207.5,221.5C 216.776,214.695 226.776,209.195 237.5,205C 237.272,204.601 236.938,204.435 236.5,204.5C 247.655,201.21 258.989,198.21 270.5,195.5 Z"/></g>
<g><path style="opacity:1" fill="#616367" d="M 343.5,200.5 C 346.546,200.183 348.213,201.516 348.5,204.5C 345.946,203.612 343.279,203.279 340.5,203.5C 340.5,204.833 340.5,206.167 340.5,207.5C 339.378,205.712 339.211,203.712 340,201.5C 341.011,200.663 342.178,200.33 343.5,200.5 Z"/></g>
<g><path style="opacity:1" fill="#3f4244" d="M 349.5,198.5 C 358.965,199.873 359.632,202.873 351.5,207.5C 350.574,204.956 349.574,202.456 348.5,200C 349.056,199.617 349.389,199.117 349.5,198.5 Z"/></g>
<g><path style="opacity:1" fill="#343436" d="M 348.5,204.5 C 349.234,205.708 349.567,207.041 349.5,208.5C 346.391,208.736 343.391,208.403 340.5,207.5C 340.5,206.167 340.5,204.833 340.5,203.5C 343.279,203.279 345.946,203.612 348.5,204.5 Z"/></g>
<g><path style="opacity:1" fill="#e0e7ec" d="M 389.5,195.5 C 395.448,198.448 400.115,202.781 403.5,208.5C 402.206,207.71 401.039,206.71 400,205.5C 399.508,206.549 399.674,207.549 400.5,208.5C 392.615,211.108 384.948,214.275 377.5,218C 360.375,218.766 343.375,220.599 326.5,223.5C 326.167,220.833 325.833,220.833 325.5,223.5C 324.387,222.054 324.22,220.387 325,218.5C 325.5,219.667 326.333,220.5 327.5,221C 330.167,221.667 332.833,221.667 335.5,221C 341.751,217.921 348.418,216.254 355.5,216C 359.249,214.059 363.249,212.726 367.5,212C 368.891,210.98 370.391,210.147 372,209.5C 374.363,205.674 373.197,204.007 368.5,204.5C 375.091,200.709 382.091,197.709 389.5,195.5 Z"/></g>
<g><path style="opacity:1" fill="#5d8dc0" d="M 133.5,206.5 C 137.558,208.956 139.225,212.623 138.5,217.5C 136.597,214.021 134.93,210.354 133.5,206.5 Z"/></g>
<g><path style="opacity:1" fill="#156cb6" d="M 127.5,180.5 C 132.016,189.545 137.516,197.878 144,205.5C 145.719,209.928 148.219,213.928 151.5,217.5C 155.356,220.857 159.356,224.024 163.5,227C 159.921,229.754 155.921,231.754 151.5,233C 149.934,233.765 148.601,233.598 147.5,232.5C 148.261,231.609 149.261,230.942 150.5,230.5C 151.583,229.635 151.749,228.635 151,227.5C 143.019,213.544 135.019,199.544 127,185.5C 126.982,187.797 127.149,190.131 127.5,192.5C 125.613,190.211 124.279,187.545 123.5,184.5C 123.923,182.219 123.256,180.552 121.5,179.5C 119.659,177.151 118.326,174.485 117.5,171.5C 117.105,168.477 118.105,167.477 120.5,168.5C 121.835,173.183 124.169,177.183 127.5,180.5 Z"/></g>
<g><path style="opacity:1" fill="#1e5ca6" d="M 147.5,232.5 C 146.833,232.5 146.167,232.5 145.5,232.5C 142.93,227.689 140.597,222.689 138.5,217.5C 139.225,212.623 137.558,208.956 133.5,206.5C 132.326,205.486 131.66,204.153 131.5,202.5C 131.923,200.219 131.256,198.552 129.5,197.5C 128.069,196.22 127.402,194.553 127.5,192.5C 127.149,190.131 126.982,187.797 127,185.5C 135.019,199.544 143.019,213.544 151,227.5C 151.749,228.635 151.583,229.635 150.5,230.5C 149.261,230.942 148.261,231.609 147.5,232.5 Z"/></g>
<g><path style="opacity:0.635" fill="#b7d7da" d="M 222.5,208.5 C 220.819,210.008 218.819,211.008 216.5,211.5C 214.143,211.337 211.81,211.503 209.5,212C 206.916,212.86 204.583,214.027 202.5,215.5C 200.833,215.5 199.167,215.5 197.5,215.5C 201.051,211.136 205.551,209.47 211,210.5C 214.811,209.638 218.644,208.971 222.5,208.5 Z"/></g>
<g><path style="opacity:1" fill="#5c6066" d="M 316.5,213.5 C 317.675,213.281 318.675,213.614 319.5,214.5C 318.68,216.111 317.346,216.778 315.5,216.5C 314.957,216.44 314.624,216.107 314.5,215.5C 315.243,214.818 315.909,214.151 316.5,213.5 Z"/></g>
<g><path style="opacity:1" fill="#8bcedf" d="M 236.5,204.5 C 236.938,204.435 237.272,204.601 237.5,205C 226.776,209.195 216.776,214.695 207.5,221.5C 205.772,223.226 203.772,224.559 201.5,225.5C 200.001,224.506 198.334,224.506 196.5,225.5C 202.591,219.928 209.258,215.262 216.5,211.5C 218.819,211.008 220.819,210.008 222.5,208.5C 227.079,206.855 231.746,205.522 236.5,204.5 Z"/></g>
<g><path style="opacity:1" fill="#ddeeb2" d="M 216.5,211.5 C 209.258,215.262 202.591,219.928 196.5,225.5C 195.391,225.557 194.391,225.89 193.5,226.5C 193.715,224.821 193.048,223.821 191.5,223.5C 191.937,221.926 192.937,220.759 194.5,220C 198.335,219.651 201.669,218.318 204.5,216C 203.906,215.536 203.239,215.369 202.5,215.5C 204.583,214.027 206.916,212.86 209.5,212C 211.81,211.503 214.143,211.337 216.5,211.5 Z"/></g>
<g><path style="opacity:1" fill="#eef4f9" d="M 312.5,204.5 C 312.5,205.167 312.5,205.833 312.5,206.5C 312.5,210.833 312.5,215.167 312.5,219.5C 311.652,220.625 310.652,220.625 309.5,219.5C 309.167,217.5 308.833,215.5 308.5,213.5C 307.5,213.5 306.5,213.5 305.5,213.5C 305.5,214.833 305.5,216.167 305.5,217.5C 305.631,218.239 305.464,218.906 305,219.5C 304.722,218.584 304.222,217.918 303.5,217.5C 303.737,216.209 303.404,215.209 302.5,214.5C 301.828,213.733 300.995,213.066 300,212.5C 299.31,214.35 298.144,215.684 296.5,216.5C 295.539,218.265 295.205,220.265 295.5,222.5C 295.649,223.552 295.483,224.552 295,225.5C 294.802,223.618 294.302,221.952 293.5,220.5C 293.5,219.5 293.5,218.5 293.5,217.5C 292.209,217.263 291.209,217.596 290.5,218.5C 289.604,217.494 288.938,217.494 288.5,218.5C 287.833,218.5 287.167,218.5 286.5,218.5C 285.833,219.167 285.167,219.833 284.5,220.5C 283.5,219.167 282.5,219.167 281.5,220.5C 280.833,220.833 280.167,221.167 279.5,221.5C 278.833,220.167 278.167,220.167 277.5,221.5C 276.833,222.167 276.167,222.833 275.5,223.5C 275.5,222.167 274.833,221.5 273.5,221.5C 272.833,222.833 272.167,224.167 271.5,225.5C 271.715,223.821 271.048,222.821 269.5,222.5C 268.833,224.167 268.167,225.833 267.5,227.5C 267.912,225.027 266.912,223.694 264.5,223.5C 263.833,224.167 263.167,224.833 262.5,225.5C 261.833,224.167 261.167,224.167 260.5,225.5C 259.833,226.5 259.167,227.5 258.5,228.5C 258.5,227.5 258.5,226.5 258.5,225.5C 257.5,225.5 256.5,225.5 255.5,225.5C 255.5,226.833 255.5,228.167 255.5,229.5C 255.672,230.492 255.338,231.158 254.5,231.5C 254.579,230.07 254.246,228.736 253.5,227.5C 252.743,226.227 252.077,226.227 251.5,227.5C 250.262,229.214 249.595,231.214 249.5,233.5C 250.552,233.351 251.552,233.517 252.5,234C 250.645,234.422 248.811,234.922 247,235.5C 246.235,235.43 245.735,235.097 245.5,234.5C 246.461,232.735 246.795,230.735 246.5,228.5C 245.5,228.5 244.5,228.5 243.5,228.5C 243.5,229.5 243.5,230.5 243.5,231.5C 243.357,233.262 243.691,234.929 244.5,236.5C 243.349,237.731 242.183,237.731 241,236.5C 239.269,239.031 238.769,239.031 239.5,236.5C 239.949,234.023 239.283,232.023 237.5,230.5C 236.614,231.325 236.281,232.325 236.5,233.5C 236.5,234.167 236.167,234.5 235.5,234.5C 235.715,232.821 235.048,231.821 233.5,231.5C 232.833,231.5 232.167,231.5 231.5,231.5C 231.167,231.5 230.833,231.5 230.5,231.5C 229.833,232.833 229.167,234.167 228.5,235.5C 228.5,234.5 228.5,233.5 228.5,232.5C 227.5,232.5 226.5,232.5 225.5,232.5C 225.833,234.5 226.167,236.5 226.5,238.5C 226.657,239.873 226.49,241.207 226,242.5C 225.303,240.416 224.136,238.749 222.5,237.5C 222.649,236.448 222.483,235.448 222,234.5C 221.31,233.262 220.81,233.262 220.5,234.5C 219.833,235.5 219.167,236.5 218.5,237.5C 218.631,236.761 218.464,236.094 218,235.5C 217.31,234.262 216.81,234.262 216.5,235.5C 215.833,236.167 215.167,236.833 214.5,237.5C 214.289,235.576 213.623,235.243 212.5,236.5C 211.833,236.5 211.167,236.5 210.5,236.5C 210.167,236.5 209.833,236.5 209.5,236.5C 208.833,236.833 208.167,237.167 207.5,237.5C 207.167,237.5 206.833,237.5 206.5,237.5C 205.5,237.5 204.5,237.5 203.5,237.5C 203.762,236.022 203.429,234.689 202.5,233.5C 202.167,233.667 201.833,233.833 201.5,234C 202.38,235.356 202.714,236.856 202.5,238.5C 202.5,238.833 202.5,239.167 202.5,239.5C 202.167,239.5 201.833,239.5 201.5,239.5C 201.5,238.833 201.167,238.5 200.5,238.5C 199.833,238.833 199.167,239.167 198.5,239.5C 198.167,239.5 197.833,239.5 197.5,239.5C 196.833,239.833 196.167,240.167 195.5,240.5C 193.781,239.978 192.448,238.978 191.5,237.5C 191.833,236.833 192.167,236.167 192.5,235.5C 195.471,232.192 198.471,228.859 201.5,225.5C 203.772,224.559 205.772,223.226 207.5,221.5C 207.005,223.482 206.505,225.482 206,227.5C 205.107,226.289 204.274,226.289 203.5,227.5C 204.815,229.316 206.315,230.983 208,232.5C 216.874,229.885 225.707,227.219 234.5,224.5C 236.737,224.694 238.903,224.694 241,224.5C 248.973,221.501 256.973,218.834 265,216.5C 265.333,217.167 265.667,217.833 266,218.5C 274.829,214.792 284.329,211.959 294.5,210C 296.224,209.552 296.891,208.718 296.5,207.5C 298.101,208.165 299.601,208.499 301,208.5C 304.59,206.477 308.424,205.144 312.5,204.5 Z"/></g>
<g><path style="opacity:1" fill="#484d51" d="M 309.5,219.5 C 308.85,219.804 308.183,220.137 307.5,220.5C 306.824,219.398 306.158,218.398 305.5,217.5C 305.5,216.167 305.5,214.833 305.5,213.5C 306.5,213.5 307.5,213.5 308.5,213.5C 308.833,215.5 309.167,217.5 309.5,219.5 Z"/></g>
<g><path style="opacity:1" fill="#494d50" d="M 302.5,214.5 C 303.404,215.209 303.737,216.209 303.5,217.5C 302.817,222.591 301.817,222.424 300.5,217C 300.639,215.699 301.305,214.866 302.5,214.5 Z"/></g>
<g><path style="opacity:1" fill="#7ebeca" d="M 193.5,217.5 C 188.891,220.11 184.558,223.11 180.5,226.5C 180.167,226.5 179.833,226.5 179.5,226.5C 179.703,224.956 180.37,223.622 181.5,222.5C 179.709,221.83 178.042,221.163 176.5,220.5C 182.34,220.409 188.006,219.409 193.5,217.5 Z"/></g>
<g><path style="opacity:1" fill="#494e51" d="M 296.5,216.5 C 298.28,217.99 298.946,219.99 298.5,222.5C 297.5,222.5 296.5,222.5 295.5,222.5C 295.205,220.265 295.539,218.265 296.5,216.5 Z"/></g>
<g><path style="opacity:1" fill="#32a4da" d="M 162.5,215.5 C 167.323,216.774 171.99,218.441 176.5,220.5C 178.042,221.163 179.709,221.83 181.5,222.5C 180.37,223.622 179.703,224.956 179.5,226.5C 179.5,226.833 179.5,227.167 179.5,227.5C 176.039,228.551 173.373,230.551 171.5,233.5C 169.469,234.539 168.136,236.205 167.5,238.5C 166.833,239.833 165.833,240.833 164.5,241.5C 163.129,240.213 161.295,239.547 159,239.5C 155.303,240.347 151.803,240.181 148.5,239C 150.167,238 151.833,237 153.5,236C 160.003,234.528 166.336,232.528 172.5,230C 171.397,227.031 170.064,226.864 168.5,229.5C 167.354,228.855 166.354,228.022 165.5,227C 167.898,225.982 170.231,224.815 172.5,223.5C 169.401,222.48 166.401,221.314 163.5,220C 164.5,219.667 165.5,219.333 166.5,219C 164.681,218.26 163.348,217.093 162.5,215.5 Z"/></g>
<g><path style="opacity:1" fill="#1a8fd0" d="M 127.5,180.5 C 129.55,182.237 131.383,184.237 133,186.5C 135.668,191.841 138.835,196.841 142.5,201.5C 143.689,202.429 145.022,202.762 146.5,202.5C 145.872,206.491 147.205,207.824 150.5,206.5C 151.167,206.833 151.833,207.167 152.5,207.5C 154.5,208.976 156.167,210.809 157.5,213C 159.078,214.094 160.745,214.928 162.5,215.5C 163.348,217.093 164.681,218.26 166.5,219C 165.5,219.333 164.5,219.667 163.5,220C 166.401,221.314 169.401,222.48 172.5,223.5C 170.231,224.815 167.898,225.982 165.5,227C 166.354,228.022 167.354,228.855 168.5,229.5C 170.064,226.864 171.397,227.031 172.5,230C 166.336,232.528 160.003,234.528 153.5,236C 151.833,237 150.167,238 148.5,239C 151.803,240.181 155.303,240.347 159,239.5C 161.295,239.547 163.129,240.213 164.5,241.5C 163.662,241.842 163.328,242.508 163.5,243.5C 161.684,245.118 160.351,247.118 159.5,249.5C 156.795,248.223 154.128,248.39 151.5,250C 151.995,251.538 151.995,253.372 151.5,255.5C 149.122,253.122 147.122,250.455 145.5,247.5C 147.475,245.638 147.808,243.638 146.5,241.5C 145.791,240.596 144.791,240.263 143.5,240.5C 143.5,239.5 143.5,238.5 143.5,237.5C 144.942,236.18 145.608,234.514 145.5,232.5C 146.167,232.5 146.833,232.5 147.5,232.5C 148.601,233.598 149.934,233.765 151.5,233C 155.921,231.754 159.921,229.754 163.5,227C 159.356,224.024 155.356,220.857 151.5,217.5C 148.219,213.928 145.719,209.928 144,205.5C 137.516,197.878 132.016,189.545 127.5,180.5 Z"/></g>
<g><path style="opacity:1" fill="#e4d184" d="M 197.5,215.5 C 199.167,215.5 200.833,215.5 202.5,215.5C 203.239,215.369 203.906,215.536 204.5,216C 201.669,218.318 198.335,219.651 194.5,220C 192.937,220.759 191.937,221.926 191.5,223.5C 189.053,223.615 187.053,224.615 185.5,226.5C 184.001,225.506 182.334,225.506 180.5,226.5C 184.558,223.11 188.891,220.11 193.5,217.5C 194.287,215.896 195.62,215.229 197.5,215.5 Z"/></g>
<g><path style="opacity:1" fill="#494c4f" d="M 284.5,220.5 C 284.785,222.288 284.452,223.955 283.5,225.5C 281.783,224.332 281.116,222.665 281.5,220.5C 282.5,219.167 283.5,219.167 284.5,220.5 Z"/></g>
<g><path style="opacity:1" fill="#dfe5ea" d="M 302.5,214.5 C 301.305,214.866 300.639,215.699 300.5,217C 301.817,222.424 302.817,222.591 303.5,217.5C 304.222,217.918 304.722,218.584 305,219.5C 305.464,218.906 305.631,218.239 305.5,217.5C 306.158,218.398 306.824,219.398 307.5,220.5C 308.183,220.137 308.85,219.804 309.5,219.5C 310.652,220.625 311.652,220.625 312.5,219.5C 313.612,221.599 314.279,223.933 314.5,226.5C 306.798,228.141 299.132,229.974 291.5,232C 280.036,232.759 269.036,234.259 258.5,236.5C 258.167,235.833 257.833,235.167 257.5,234.5C 256.251,236.475 254.751,236.809 253,235.5C 251.647,236.685 250.48,238.019 249.5,239.5C 243.78,240.304 238.113,241.304 232.5,242.5C 232.167,242.5 231.833,242.5 231.5,242.5C 227.162,242.378 226.828,242.045 230.5,241.5C 230.354,239.058 231.187,238.391 233,239.5C 233.698,238.309 234.531,237.309 235.5,236.5C 235.5,235.833 235.5,235.167 235.5,234.5C 236.167,234.5 236.5,234.167 236.5,233.5C 237.1,234.9 238.1,235.9 239.5,236.5C 238.769,239.031 239.269,239.031 241,236.5C 242.183,237.731 243.349,237.731 244.5,236.5C 243.691,234.929 243.357,233.262 243.5,231.5C 244.167,232.5 244.833,233.5 245.5,234.5C 245.735,235.097 246.235,235.43 247,235.5C 248.811,234.922 250.645,234.422 252.5,234C 251.552,233.517 250.552,233.351 249.5,233.5C 249.595,231.214 250.262,229.214 251.5,227.5C 251.5,229.167 251.5,230.833 251.5,232.5C 252.791,232.737 253.791,232.404 254.5,231.5C 255.338,231.158 255.672,230.492 255.5,229.5C 257.306,232.338 258.306,232.005 258.5,228.5C 259.167,227.5 259.833,226.5 260.5,225.5C 260.372,227.655 260.872,229.655 262,231.5C 263.689,229.68 263.855,227.68 262.5,225.5C 263.167,224.833 263.833,224.167 264.5,223.5C 264.298,225.989 264.798,228.323 266,230.5C 267.039,229.756 267.539,228.756 267.5,227.5C 268.167,225.833 268.833,224.167 269.5,222.5C 269.192,224.924 269.526,227.257 270.5,229.5C 271.429,228.311 271.762,226.978 271.5,225.5C 272.167,224.167 272.833,222.833 273.5,221.5C 273.192,223.924 273.526,226.257 274.5,228.5C 275.452,226.955 275.785,225.288 275.5,223.5C 276.167,222.833 276.833,222.167 277.5,221.5C 278.623,227.966 279.29,227.966 279.5,221.5C 280.167,221.167 280.833,220.833 281.5,220.5C 281.116,222.665 281.783,224.332 283.5,225.5C 284.452,223.955 284.785,222.288 284.5,220.5C 285.167,219.833 285.833,219.167 286.5,218.5C 287.167,226.5 287.833,226.5 288.5,218.5C 288.938,217.494 289.604,217.494 290.5,218.5C 290.771,220.312 291.438,221.978 292.5,223.5C 293.386,222.675 293.719,221.675 293.5,220.5C 294.302,221.952 294.802,223.618 295,225.5C 295.483,224.552 295.649,223.552 295.5,222.5C 296.5,222.5 297.5,222.5 298.5,222.5C 298.946,219.99 298.28,217.99 296.5,216.5C 298.144,215.684 299.31,214.35 300,212.5C 300.995,213.066 301.828,213.733 302.5,214.5 Z"/></g>
<g><path style="opacity:1" fill="#434649" d="M 286.5,218.5 C 287.167,218.5 287.833,218.5 288.5,218.5C 287.833,226.5 287.167,226.5 286.5,218.5 Z"/></g>
<g><path style="opacity:1" fill="#4b4f54" d="M 273.5,221.5 C 274.833,221.5 275.5,222.167 275.5,223.5C 275.785,225.288 275.452,226.955 274.5,228.5C 273.526,226.257 273.192,223.924 273.5,221.5 Z"/></g>
<g><path style="opacity:1" fill="#414549" d="M 293.5,220.5 C 293.719,221.675 293.386,222.675 292.5,223.5C 291.438,221.978 290.771,220.312 290.5,218.5C 291.209,217.596 292.209,217.263 293.5,217.5C 293.5,218.5 293.5,219.5 293.5,220.5 Z"/></g>
<g><path style="opacity:1" fill="#4e5356" d="M 264.5,223.5 C 266.912,223.694 267.912,225.027 267.5,227.5C 267.539,228.756 267.039,229.756 266,230.5C 264.798,228.323 264.298,225.989 264.5,223.5 Z"/></g>
<g><path style="opacity:1" fill="#43474a" d="M 269.5,222.5 C 271.048,222.821 271.715,223.821 271.5,225.5C 271.762,226.978 271.429,228.311 270.5,229.5C 269.526,227.257 269.192,224.924 269.5,222.5 Z"/></g>
<g><path style="opacity:1" fill="#3e4246" d="M 279.5,221.5 C 279.29,227.966 278.623,227.966 277.5,221.5C 278.167,220.167 278.833,220.167 279.5,221.5 Z"/></g>
<g><path style="opacity:1" fill="#e7f3a0" d="M 193.5,226.5 C 191.833,228.833 189.833,230.833 187.5,232.5C 187.176,228.812 189.176,226.812 193.5,226.5 Z"/></g>
<g><path style="opacity:1" fill="#b3bdc4" d="M 403.5,217.5 C 403.34,219.153 402.674,220.486 401.5,221.5C 401.291,220.078 400.791,218.745 400,217.5C 397.834,219.121 395.334,219.955 392.5,220C 390.589,221.496 388.589,222.829 386.5,224C 378.657,226.294 370.657,227.628 362.5,228C 355.151,230.004 347.817,232.004 340.5,234C 335.803,234.28 331.137,234.78 326.5,235.5C 325.833,235.167 325.167,234.833 324.5,234.5C 327.342,233.996 328.675,232.329 328.5,229.5C 329.524,234.104 331.857,234.604 335.5,231C 351.374,227.29 367.374,224.624 383.5,223C 389.341,219.995 395.174,217.162 401,214.5C 402.417,215.078 403.25,216.078 403.5,217.5 Z"/></g>
<g><path style="opacity:1" fill="#c4ced3" d="M 403.5,208.5 C 404.833,211.5 404.833,214.5 403.5,217.5C 403.25,216.078 402.417,215.078 401,214.5C 395.174,217.162 389.341,219.995 383.5,223C 367.374,224.624 351.374,227.29 335.5,231C 331.857,234.604 329.524,234.104 328.5,229.5C 327.833,227.5 327.167,225.5 326.5,223.5C 343.375,220.599 360.375,218.766 377.5,218C 384.948,214.275 392.615,211.108 400.5,208.5C 399.674,207.549 399.508,206.549 400,205.5C 401.039,206.71 402.206,207.71 403.5,208.5 Z"/></g>
<g><path style="opacity:1" fill="#eba542" d="M 185.5,226.5 C 182.72,229.064 179.72,231.397 176.5,233.5C 177.044,231.284 178.044,229.284 179.5,227.5C 179.5,227.167 179.5,226.833 179.5,226.5C 179.833,226.5 180.167,226.5 180.5,226.5C 182.334,225.506 184.001,225.506 185.5,226.5 Z"/></g>
<g><path style="opacity:1" fill="#4a4f53" d="M 254.5,231.5 C 253.791,232.404 252.791,232.737 251.5,232.5C 251.5,230.833 251.5,229.167 251.5,227.5C 252.077,226.227 252.743,226.227 253.5,227.5C 254.246,228.736 254.579,230.07 254.5,231.5 Z"/></g>
<g><path style="opacity:1" fill="#555a5d" d="M 258.5,228.5 C 258.306,232.005 257.306,232.338 255.5,229.5C 255.5,228.167 255.5,226.833 255.5,225.5C 256.5,225.5 257.5,225.5 258.5,225.5C 258.5,226.5 258.5,227.5 258.5,228.5 Z"/></g>
<g><path style="opacity:1" fill="#4e5256" d="M 262.5,225.5 C 263.855,227.68 263.689,229.68 262,231.5C 260.872,229.655 260.372,227.655 260.5,225.5C 261.167,224.167 261.833,224.167 262.5,225.5 Z"/></g>
<g><path style="opacity:1" fill="#45b0d7" d="M 201.5,225.5 C 198.471,228.859 195.471,232.192 192.5,235.5C 190.374,234.897 188.041,234.897 185.5,235.5C 185.782,234.222 186.449,233.222 187.5,232.5C 189.833,230.833 191.833,228.833 193.5,226.5C 194.391,225.89 195.391,225.557 196.5,225.5C 198.334,224.506 200.001,224.506 201.5,225.5 Z"/></g>
<g><path style="opacity:1" fill="#515155" d="M 239.5,236.5 C 238.1,235.9 237.1,234.9 236.5,233.5C 236.281,232.325 236.614,231.325 237.5,230.5C 239.283,232.023 239.949,234.023 239.5,236.5 Z"/></g>
<g><path style="opacity:1" fill="#4b5054" d="M 245.5,234.5 C 244.833,233.5 244.167,232.5 243.5,231.5C 243.5,230.5 243.5,229.5 243.5,228.5C 244.5,228.5 245.5,228.5 246.5,228.5C 246.795,230.735 246.461,232.735 245.5,234.5 Z"/></g>
<g><path style="opacity:1" fill="#e09b57" d="M 179.5,227.5 C 178.044,229.284 177.044,231.284 176.5,233.5C 175.766,234.708 175.433,236.041 175.5,237.5C 174.222,237.782 173.222,238.449 172.5,239.5C 172.631,238.624 172.298,237.957 171.5,237.5C 170.583,238.127 169.583,238.461 168.5,238.5C 169.752,236.999 170.752,235.332 171.5,233.5C 173.373,230.551 176.039,228.551 179.5,227.5 Z"/></g>
<g><path style="opacity:1" fill="#434447" d="M 233.5,231.5 C 235.048,231.821 235.715,232.821 235.5,234.5C 235.5,235.167 235.5,235.833 235.5,236.5C 233.744,235.448 233.077,233.781 233.5,231.5 Z"/></g>
<g><path style="opacity:1" fill="#d7d768" d="M 191.5,223.5 C 193.048,223.821 193.715,224.821 193.5,226.5C 189.176,226.812 187.176,228.812 187.5,232.5C 186.449,233.222 185.782,234.222 185.5,235.5C 183.529,237.808 181.529,240.142 179.5,242.5C 177.703,243.73 175.703,244.396 173.5,244.5C 174.415,242.246 175.748,240.246 177.5,238.5C 177.043,237.702 176.376,237.369 175.5,237.5C 175.433,236.041 175.766,234.708 176.5,233.5C 179.72,231.397 182.72,229.064 185.5,226.5C 187.053,224.615 189.053,223.615 191.5,223.5 Z"/></g>
<g><path style="opacity:1" fill="#2190cb" d="M 192.5,235.5 C 192.167,236.167 191.833,236.833 191.5,237.5C 190.512,238.795 189.512,240.128 188.5,241.5C 186.087,240.32 185.087,238.32 185.5,235.5C 188.041,234.897 190.374,234.897 192.5,235.5 Z"/></g>
<g><path style="opacity:1" fill="#4b5155" d="M 228.5,235.5 C 228.715,237.179 228.048,238.179 226.5,238.5C 226.167,236.5 225.833,234.5 225.5,232.5C 226.5,232.5 227.5,232.5 228.5,232.5C 228.5,233.5 228.5,234.5 228.5,235.5 Z"/></g>
<g><path style="opacity:1" fill="#d0d8de" d="M 312.5,206.5 C 313.451,207.919 313.784,209.585 313.5,211.5C 314.5,211.5 315.5,211.5 316.5,211.5C 316.5,210.5 316.5,209.5 316.5,208.5C 320.158,209.855 319.825,211.355 315.5,213C 315.728,213.399 316.062,213.565 316.5,213.5C 315.909,214.151 315.243,214.818 314.5,215.5C 314.624,216.107 314.957,216.44 315.5,216.5C 314.312,219.627 314.645,222.627 316.5,225.5C 315.506,226.999 315.506,228.666 316.5,230.5C 310.726,230.773 304.726,231.273 298.5,232C 286.249,235.031 273.916,237.531 261.5,239.5C 259.398,239.521 257.232,239.187 255,238.5C 254.348,240.723 252.848,241.89 250.5,242C 244.777,242.953 239.11,244.12 233.5,245.5C 232.614,244.675 232.281,243.675 232.5,242.5C 238.113,241.304 243.78,240.304 249.5,239.5C 250.48,238.019 251.647,236.685 253,235.5C 254.751,236.809 256.251,236.475 257.5,234.5C 257.833,235.167 258.167,235.833 258.5,236.5C 269.036,234.259 280.036,232.759 291.5,232C 299.132,229.974 306.798,228.141 314.5,226.5C 314.279,223.933 313.612,221.599 312.5,219.5C 312.5,215.167 312.5,210.833 312.5,206.5 Z"/></g>
<g><path style="opacity:1" fill="#67747b" d="M 384.5,239.5 C 376.585,245.618 367.585,249.284 357.5,250.5C 358.681,248.933 360.347,248.099 362.5,248C 359.972,247.331 359.972,246.498 362.5,245.5C 364.071,246.309 365.738,246.643 367.5,246.5C 367.64,244.876 366.973,243.71 365.5,243C 363.455,242.51 361.455,242.677 359.5,243.5C 364.122,241.526 368.789,239.526 373.5,237.5C 375.695,235.821 378.195,234.821 381,234.5C 382.167,234.833 383.333,235.167 384.5,235.5C 383.637,236.726 383.637,238.06 384.5,239.5 Z"/></g>
<g><path style="opacity:1" fill="#b79982" d="M 171.5,233.5 C 170.752,235.332 169.752,236.999 168.5,238.5C 168.167,238.5 167.833,238.5 167.5,238.5C 168.136,236.205 169.469,234.539 171.5,233.5 Z"/></g>
<g><path style="opacity:1" fill="#e66e31" d="M 172.5,239.5 C 170.478,241.531 168.811,243.865 167.5,246.5C 166.5,246.5 165.5,246.5 164.5,246.5C 164.5,244.833 164.5,243.167 164.5,241.5C 165.833,240.833 166.833,239.833 167.5,238.5C 167.833,238.5 168.167,238.5 168.5,238.5C 169.583,238.461 170.583,238.127 171.5,237.5C 172.298,237.957 172.631,238.624 172.5,239.5 Z"/></g>
<g><path style="opacity:1" fill="#88ac46" d="M 175.5,237.5 C 176.376,237.369 177.043,237.702 177.5,238.5C 175.748,240.246 174.415,242.246 173.5,244.5C 172.833,244.5 172.5,244.833 172.5,245.5C 170.958,246.301 169.292,246.634 167.5,246.5C 168.811,243.865 170.478,241.531 172.5,239.5C 173.222,238.449 174.222,237.782 175.5,237.5 Z"/></g>
<g><path style="opacity:1" fill="#4683a4" d="M 185.5,235.5 C 185.087,238.32 186.087,240.32 188.5,241.5C 189.613,242.946 189.78,244.613 189,246.5C 188.617,245.944 188.117,245.611 187.5,245.5C 186.596,244.791 186.263,243.791 186.5,242.5C 184.097,242.448 181.764,242.781 179.5,243.5C 179.5,243.167 179.5,242.833 179.5,242.5C 181.529,240.142 183.529,237.808 185.5,235.5 Z"/></g>
<g><path style="opacity:1" fill="#d2dadf" d="M 230.5,231.5 C 230.201,233.604 230.534,235.604 231.5,237.5C 232.519,235.54 232.519,233.54 231.5,231.5C 232.167,231.5 232.833,231.5 233.5,231.5C 233.077,233.781 233.744,235.448 235.5,236.5C 234.531,237.309 233.698,238.309 233,239.5C 231.187,238.391 230.354,239.058 230.5,241.5C 226.828,242.045 227.162,242.378 231.5,242.5C 230.391,243.29 229.058,243.79 227.5,244C 228.711,244.893 228.711,245.726 227.5,246.5C 225.843,244.421 223.843,244.254 221.5,246C 222.167,246.667 222.833,247.333 223.5,248C 210.321,250.46 197.154,252.96 184,255.5C 182.93,255.472 182.097,255.139 181.5,254.5C 182.167,252.5 182.833,250.5 183.5,248.5C 184.876,247.535 186.209,246.535 187.5,245.5C 188.117,245.611 188.617,245.944 189,246.5C 189.78,244.613 189.613,242.946 188.5,241.5C 189.512,240.128 190.512,238.795 191.5,237.5C 192.448,238.978 193.781,239.978 195.5,240.5C 196.167,240.167 196.833,239.833 197.5,239.5C 197.215,241.288 197.548,242.955 198.5,244.5C 199.434,242.905 199.434,241.239 198.5,239.5C 199.167,239.167 199.833,238.833 200.5,238.5C 200.201,240.604 200.534,242.604 201.5,244.5C 202.434,242.905 202.434,241.239 201.5,239.5C 201.833,239.5 202.167,239.5 202.5,239.5C 202.971,240.901 203.638,242.234 204.5,243.5C 205.786,241.069 205.119,239.403 202.5,238.5C 202.714,236.856 202.38,235.356 201.5,234C 201.833,233.833 202.167,233.667 202.5,233.5C 203.429,234.689 203.762,236.022 203.5,237.5C 204.5,237.5 205.5,237.5 206.5,237.5C 206.215,239.288 206.548,240.955 207.5,242.5C 208.434,240.905 208.434,239.239 207.5,237.5C 208.167,237.167 208.833,236.833 209.5,236.5C 209.201,238.604 209.534,240.604 210.5,242.5C 211.694,240.484 211.694,238.484 210.5,236.5C 211.167,236.5 211.833,236.5 212.5,236.5C 213.088,242.146 213.754,242.479 214.5,237.5C 215.167,236.833 215.833,236.167 216.5,235.5C 216.215,237.288 216.548,238.955 217.5,240.5C 218.386,239.675 218.719,238.675 218.5,237.5C 219.167,236.5 219.833,235.5 220.5,234.5C 220.215,236.288 220.548,237.955 221.5,239.5C 222.298,239.043 222.631,238.376 222.5,237.5C 224.136,238.749 225.303,240.416 226,242.5C 226.49,241.207 226.657,239.873 226.5,238.5C 228.048,238.179 228.715,237.179 228.5,235.5C 229.167,234.167 229.833,232.833 230.5,231.5 Z"/></g>
<g><path style="opacity:1" fill="#484c50" d="M 195.5,240.5 C 196.434,242.239 196.434,243.905 195.5,245.5C 194.212,243.701 194.212,242.035 195.5,240.5 Z"/></g>
<g><path style="opacity:1" fill="#494e51" d="M 202.5,238.5 C 205.119,239.403 205.786,241.069 204.5,243.5C 203.638,242.234 202.971,240.901 202.5,239.5C 202.5,239.167 202.5,238.833 202.5,238.5 Z"/></g>
<g><path style="opacity:1" fill="#515558" d="M 200.5,238.5 C 201.167,238.5 201.5,238.833 201.5,239.5C 202.434,241.239 202.434,242.905 201.5,244.5C 200.534,242.604 200.201,240.604 200.5,238.5 Z"/></g>
<g><path style="opacity:1" fill="#54595c" d="M 191.5,240.5 C 192.306,241.997 192.972,243.664 193.5,245.5C 193.167,245.833 192.833,246.167 192.5,246.5C 191.534,244.604 191.201,242.604 191.5,240.5 Z"/></g>
<g><path style="opacity:1" fill="#454a4d" d="M 197.5,239.5 C 197.833,239.5 198.167,239.5 198.5,239.5C 199.434,241.239 199.434,242.905 198.5,244.5C 197.548,242.955 197.215,241.288 197.5,239.5 Z"/></g>
<g><path style="opacity:1" fill="#53585b" d="M 209.5,236.5 C 209.833,236.5 210.167,236.5 210.5,236.5C 211.694,238.484 211.694,240.484 210.5,242.5C 209.534,240.604 209.201,238.604 209.5,236.5 Z"/></g>
<g><path style="opacity:1" fill="#434849" d="M 206.5,237.5 C 206.833,237.5 207.167,237.5 207.5,237.5C 208.434,239.239 208.434,240.905 207.5,242.5C 206.548,240.955 206.215,239.288 206.5,237.5 Z"/></g>
<g><path style="opacity:1" fill="#45494c" d="M 214.5,237.5 C 213.754,242.479 213.088,242.146 212.5,236.5C 213.623,235.243 214.289,235.576 214.5,237.5 Z"/></g>
<g><path style="opacity:1" fill="#494d51" d="M 230.5,231.5 C 230.833,231.5 231.167,231.5 231.5,231.5C 232.519,233.54 232.519,235.54 231.5,237.5C 230.534,235.604 230.201,233.604 230.5,231.5 Z"/></g>
<g><path style="opacity:1" fill="#505558" d="M 218.5,237.5 C 218.719,238.675 218.386,239.675 217.5,240.5C 216.548,238.955 216.215,237.288 216.5,235.5C 216.81,234.262 217.31,234.262 218,235.5C 218.464,236.094 218.631,236.761 218.5,237.5 Z"/></g>
<g><path style="opacity:1" fill="#484d51" d="M 222.5,237.5 C 222.631,238.376 222.298,239.043 221.5,239.5C 220.548,237.955 220.215,236.288 220.5,234.5C 220.81,233.262 221.31,233.262 222,234.5C 222.483,235.448 222.649,236.448 222.5,237.5 Z"/></g>
<g><path style="opacity:1" fill="#b3bdc2" d="M 326.5,223.5 C 327.167,225.5 327.833,227.5 328.5,229.5C 325.651,231.956 322.485,232.622 319,231.5C 318.798,233.256 318.298,234.922 317.5,236.5C 316.604,235.494 315.938,235.494 315.5,236.5C 316.376,237.251 317.376,237.751 318.5,238C 297.242,242.322 275.908,245.822 254.5,248.5C 247.533,245.658 247.866,243.825 255.5,243C 259.868,242.291 264.201,242.458 268.5,243.5C 284.796,240.173 301.129,237.173 317.5,234.5C 317.768,232.901 317.434,231.568 316.5,230.5C 315.506,228.666 315.506,226.999 316.5,225.5C 317.067,227.03 317.733,228.53 318.5,230C 324.71,231.62 327.044,229.453 325.5,223.5C 325.833,220.833 326.167,220.833 326.5,223.5 Z"/></g>
<g><path style="opacity:1" fill="#758188" d="M 373.5,237.5 C 368.789,239.526 364.122,241.526 359.5,243.5C 345.45,245.673 331.45,248.173 317.5,251C 312.833,251.333 308.167,251.667 303.5,252C 308.147,254.58 313.147,256.08 318.5,256.5C 305.067,259.223 291.401,261.223 277.5,262.5C 277.389,261.883 277.056,261.383 276.5,261C 284.544,259.94 292.544,258.607 300.5,257C 298.754,256.529 297.087,255.862 295.5,255C 293.479,254.86 291.645,254.693 290,254.5C 282.623,258.057 274.789,259.724 266.5,259.5C 261.767,259.223 257.1,259.557 252.5,260.5C 251.702,260.043 251.369,259.376 251.5,258.5C 255.514,258.666 259.514,258.499 263.5,258C 265.863,257.411 266.863,255.911 266.5,253.5C 273.212,253.373 279.545,252.539 285.5,251C 284.269,249.817 284.269,248.651 285.5,247.5C 286.522,247.855 287.189,248.522 287.5,249.5C 290.748,253.267 294.748,254.267 299.5,252.5C 300.711,251.726 300.711,250.893 299.5,250C 301.235,249.349 302.902,249.515 304.5,250.5C 327.382,245.524 350.382,241.19 373.5,237.5 Z"/></g>
<g><path style="opacity:1" fill="#ab8180" d="M 163.5,243.5 C 163.245,246.229 162.245,248.562 160.5,250.5C 160.167,250.5 159.833,250.5 159.5,250.5C 159.5,250.167 159.5,249.833 159.5,249.5C 160.351,247.118 161.684,245.118 163.5,243.5 Z"/></g>
<g><path style="opacity:1" fill="#bfcad0" d="M 316.5,230.5 C 317.434,231.568 317.768,232.901 317.5,234.5C 301.129,237.173 284.796,240.173 268.5,243.5C 264.201,242.458 259.868,242.291 255.5,243C 247.866,243.825 247.533,245.658 254.5,248.5C 256.54,250.177 258.54,251.844 260.5,253.5C 253.544,254.578 246.544,255.244 239.5,255.5C 241.102,253.926 243.102,253.259 245.5,253.5C 245.5,252.5 245.5,251.5 245.5,250.5C 241.462,249.137 237.462,249.304 233.5,251C 224.816,254.613 216.149,258.113 207.5,261.5C 207.5,261.167 207.5,260.833 207.5,260.5C 207.261,258.533 207.594,256.699 208.5,255C 201.827,255.221 195.16,255.887 188.5,257C 186.182,258.993 183.516,260.159 180.5,260.5C 180.5,259.167 180.5,257.833 180.5,256.5C 180.328,255.508 180.662,254.842 181.5,254.5C 182.097,255.139 182.93,255.472 184,255.5C 197.154,252.96 210.321,250.46 223.5,248C 222.833,247.333 222.167,246.667 221.5,246C 223.843,244.254 225.843,244.421 227.5,246.5C 228.711,245.726 228.711,244.893 227.5,244C 229.058,243.79 230.391,243.29 231.5,242.5C 231.833,242.5 232.167,242.5 232.5,242.5C 232.281,243.675 232.614,244.675 233.5,245.5C 239.11,244.12 244.777,242.953 250.5,242C 252.848,241.89 254.348,240.723 255,238.5C 257.232,239.187 259.398,239.521 261.5,239.5C 273.916,237.531 286.249,235.031 298.5,232C 304.726,231.273 310.726,230.773 316.5,230.5 Z"/></g>
<g><path style="opacity:1" fill="#99a5ab" d="M 401.5,221.5 C 399.853,224.473 397.853,227.14 395.5,229.5C 395.785,227.712 395.452,226.045 394.5,224.5C 390.069,227.474 385.402,229.974 380.5,232C 355.298,235.016 330.298,239.183 305.5,244.5C 304.167,244.167 302.833,243.833 301.5,243.5C 297.862,244.182 294.195,244.682 290.5,245C 291.91,245.368 292.91,246.201 293.5,247.5C 291.696,248.768 289.696,249.435 287.5,249.5C 287.189,248.522 286.522,247.855 285.5,247.5C 284.269,248.651 284.269,249.817 285.5,251C 279.545,252.539 273.212,253.373 266.5,253.5C 266.863,255.911 265.863,257.411 263.5,258C 259.514,258.499 255.514,258.666 251.5,258.5C 250.791,257.596 249.791,257.263 248.5,257.5C 253.375,256.759 258.375,255.925 263.5,255C 262.756,253.961 261.756,253.461 260.5,253.5C 258.54,251.844 256.54,250.177 254.5,248.5C 275.908,245.822 297.242,242.322 318.5,238C 317.376,237.751 316.376,237.251 315.5,236.5C 315.938,235.494 316.604,235.494 317.5,236.5C 318.298,234.922 318.798,233.256 319,231.5C 322.485,232.622 325.651,231.956 328.5,229.5C 328.675,232.329 327.342,233.996 324.5,234.5C 325.167,234.833 325.833,235.167 326.5,235.5C 331.137,234.78 335.803,234.28 340.5,234C 347.817,232.004 355.151,230.004 362.5,228C 370.657,227.628 378.657,226.294 386.5,224C 388.589,222.829 390.589,221.496 392.5,220C 395.334,219.955 397.834,219.121 400,217.5C 400.791,218.745 401.291,220.078 401.5,221.5 Z"/></g>
<g><path style="opacity:1" fill="#848f96" d="M 395.5,229.5 C 392.437,233.566 388.771,236.899 384.5,239.5C 383.637,238.06 383.637,236.726 384.5,235.5C 383.333,235.167 382.167,234.833 381,234.5C 378.195,234.821 375.695,235.821 373.5,237.5C 350.382,241.19 327.382,245.524 304.5,250.5C 302.902,249.515 301.235,249.349 299.5,250C 300.711,250.893 300.711,251.726 299.5,252.5C 294.748,254.267 290.748,253.267 287.5,249.5C 289.696,249.435 291.696,248.768 293.5,247.5C 292.91,246.201 291.91,245.368 290.5,245C 294.195,244.682 297.862,244.182 301.5,243.5C 302.833,243.833 304.167,244.167 305.5,244.5C 330.298,239.183 355.298,235.016 380.5,232C 385.402,229.974 390.069,227.474 394.5,224.5C 395.452,226.045 395.785,227.712 395.5,229.5 Z"/></g>
<g><path style="opacity:1" fill="#3a6376" d="M 187.5,245.5 C 186.209,246.535 184.876,247.535 183.5,248.5C 180.904,249.265 178.237,249.599 175.5,249.5C 176.34,247.147 177.674,245.147 179.5,243.5C 181.764,242.781 184.097,242.448 186.5,242.5C 186.263,243.791 186.596,244.791 187.5,245.5 Z"/></g>
<g><path style="opacity:0.822" fill="#e0f1fb" d="M 143.5,237.5 C 143.5,238.5 143.5,239.5 143.5,240.5C 144.791,240.263 145.791,240.596 146.5,241.5C 145.158,242.793 143.491,243.626 141.5,244C 121.486,248.171 101.486,252.338 81.5,256.5C 99.4186,250.602 117.752,245.769 136.5,242C 139.233,241.096 141.567,239.596 143.5,237.5 Z"/></g>
<g><path style="opacity:1" fill="#a2b3bc" d="M 146.5,241.5 C 147.808,243.638 147.475,245.638 145.5,247.5C 122.496,251.501 99.4964,255.501 76.5,259.5C 75.448,259.649 74.448,259.483 73.5,259C 76.3791,258.454 79.0458,257.621 81.5,256.5C 101.486,252.338 121.486,248.171 141.5,244C 143.491,243.626 145.158,242.793 146.5,241.5 Z"/></g>
<g><path style="opacity:1" fill="#5b5d3a" d="M 172.5,245.5 C 173.833,246.833 173.833,248.167 172.5,249.5C 171.29,249.932 170.29,250.599 169.5,251.5C 168.036,250.595 166.702,250.595 165.5,251.5C 166.167,249.833 166.833,248.167 167.5,246.5C 169.292,246.634 170.958,246.301 172.5,245.5 Z"/></g>
<g><path style="opacity:1" fill="#9c905d" d="M 179.5,242.5 C 179.5,242.833 179.5,243.167 179.5,243.5C 177.674,245.147 176.34,247.147 175.5,249.5C 175.5,250.167 175.5,250.833 175.5,251.5C 174.833,251.833 174.167,252.167 173.5,252.5C 173.443,251.391 173.11,250.391 172.5,249.5C 173.833,248.167 173.833,246.833 172.5,245.5C 172.5,244.833 172.833,244.5 173.5,244.5C 175.703,244.396 177.703,243.73 179.5,242.5 Z"/></g>
<g><path style="opacity:1" fill="#a35b37" d="M 164.5,241.5 C 164.5,243.167 164.5,244.833 164.5,246.5C 165.5,246.5 166.5,246.5 167.5,246.5C 166.833,248.167 166.167,249.833 165.5,251.5C 164.051,253.611 163.051,255.944 162.5,258.5C 161.533,259.806 160.199,260.473 158.5,260.5C 157.699,258.958 157.366,257.292 157.5,255.5C 157.229,253.62 157.896,252.287 159.5,251.5C 158.425,253.856 158.425,256.189 159.5,258.5C 162.889,255.969 163.222,253.302 160.5,250.5C 162.245,248.562 163.245,246.229 163.5,243.5C 163.328,242.508 163.662,241.842 164.5,241.5 Z"/></g>
<g><path style="opacity:1" fill="#67a342" d="M 169.5,251.5 C 168.25,254.006 167.584,256.673 167.5,259.5C 166.833,260.833 166.167,262.167 165.5,263.5C 162.916,262.952 161.916,261.285 162.5,258.5C 163.051,255.944 164.051,253.611 165.5,251.5C 166.702,250.595 168.036,250.595 169.5,251.5 Z"/></g>
<g><path style="opacity:1" fill="#566167" d="M 357.5,250.5 C 353.154,250.334 348.821,250.501 344.5,251C 344.833,251.333 345.167,251.667 345.5,252C 341.833,252.333 338.167,252.667 334.5,253C 333.944,253.383 333.611,253.883 333.5,254.5C 329.486,254.334 325.486,254.501 321.5,255C 320.584,255.278 319.918,255.778 319.5,256.5C 319.167,256.5 318.833,256.5 318.5,256.5C 313.147,256.08 308.147,254.58 303.5,252C 308.167,251.667 312.833,251.333 317.5,251C 331.45,248.173 345.45,245.673 359.5,243.5C 361.455,242.677 363.455,242.51 365.5,243C 366.973,243.71 367.64,244.876 367.5,246.5C 365.738,246.643 364.071,246.309 362.5,245.5C 359.972,246.498 359.972,247.331 362.5,248C 360.347,248.099 358.681,248.933 357.5,250.5 Z"/></g>
<g><path style="opacity:1" fill="#7a8f9b" d="M 357.5,250.5 C 349.767,252.678 341.767,254.011 333.5,254.5C 333.611,253.883 333.944,253.383 334.5,253C 338.167,252.667 341.833,252.333 345.5,252C 345.167,251.667 344.833,251.333 344.5,251C 348.821,250.501 353.154,250.334 357.5,250.5 Z"/></g>
<g><path style="opacity:1" fill="#2a74b2" d="M 159.5,249.5 C 159.5,249.833 159.5,250.167 159.5,250.5C 159.5,250.833 159.5,251.167 159.5,251.5C 157.896,252.287 157.229,253.62 157.5,255.5C 156.833,256.5 156.167,257.5 155.5,258.5C 153.878,257.878 152.545,256.878 151.5,255.5C 151.995,253.372 151.995,251.538 151.5,250C 154.128,248.39 156.795,248.223 159.5,249.5 Z"/></g>
<g><path style="opacity:1" fill="#de5228" d="M 159.5,250.5 C 159.833,250.5 160.167,250.5 160.5,250.5C 163.222,253.302 162.889,255.969 159.5,258.5C 158.425,256.189 158.425,253.856 159.5,251.5C 159.5,251.167 159.5,250.833 159.5,250.5 Z"/></g>
<g><path style="opacity:1" fill="#7d939d" d="M 333.5,254.5 C 329.081,255.972 324.414,256.638 319.5,256.5C 319.918,255.778 320.584,255.278 321.5,255C 325.486,254.501 329.486,254.334 333.5,254.5 Z"/></g>
<g><path style="opacity:1" fill="#abbac2" d="M 260.5,253.5 C 261.756,253.461 262.756,253.961 263.5,255C 258.375,255.925 253.375,256.759 248.5,257.5C 241.236,259.36 233.903,261.36 226.5,263.5C 230.699,260.57 235.032,257.903 239.5,255.5C 246.544,255.244 253.544,254.578 260.5,253.5 Z"/></g>
<g><path style="opacity:0.294" fill="#cbdbe3" d="M 81.5,256.5 C 79.0458,257.621 76.3791,258.454 73.5,259C 74.448,259.483 75.448,259.649 76.5,259.5C 74.016,260.369 71.3493,261.036 68.5,261.5C 66.4311,261.176 66.0977,260.342 67.5,259C 72.0959,257.714 76.7626,256.881 81.5,256.5 Z"/></g>
<g><path style="opacity:1" fill="#3b6d85" d="M 175.5,251.5 C 174.94,253.801 174.44,256.134 174,258.5C 173.329,259.252 172.496,259.586 171.5,259.5C 171.833,258.167 172.167,256.833 172.5,255.5C 173.404,254.791 173.737,253.791 173.5,252.5C 174.167,252.167 174.833,251.833 175.5,251.5 Z"/></g>
<g><path style="opacity:1" fill="#a0adb4" d="M 207.5,260.5 C 197.686,263.025 187.686,264.691 177.5,265.5C 177.69,262.145 178.69,259.145 180.5,256.5C 180.5,257.833 180.5,259.167 180.5,260.5C 183.516,260.159 186.182,258.993 188.5,257C 195.16,255.887 201.827,255.221 208.5,255C 207.594,256.699 207.261,258.533 207.5,260.5 Z"/></g>
<g><path style="opacity:0.792" fill="#a4898c" d="M 157.5,255.5 C 157.366,257.292 157.699,258.958 158.5,260.5C 156.973,260.573 155.973,259.906 155.5,258.5C 156.167,257.5 156.833,256.5 157.5,255.5 Z"/></g>
<g><path style="opacity:1" fill="#dbac34" d="M 172.5,249.5 C 173.11,250.391 173.443,251.391 173.5,252.5C 173.737,253.791 173.404,254.791 172.5,255.5C 170.876,257.889 169.543,260.556 168.5,263.5C 167.571,262.311 167.238,260.978 167.5,259.5C 167.584,256.673 168.25,254.006 169.5,251.5C 170.29,250.599 171.29,249.932 172.5,249.5 Z"/></g>
<g><path style="opacity:1" fill="#1464a4" d="M 183.5,248.5 C 182.833,250.5 182.167,252.5 181.5,254.5C 180.662,254.842 180.328,255.508 180.5,256.5C 178.69,259.145 177.69,262.145 177.5,265.5C 177.443,266.609 177.11,267.609 176.5,268.5C 175.167,268.167 173.833,267.833 172.5,267.5C 172.167,267.5 171.833,267.5 171.5,267.5C 171.065,265.703 171.065,263.703 171.5,261.5C 171.5,260.833 171.5,260.167 171.5,259.5C 172.496,259.586 173.329,259.252 174,258.5C 174.44,256.134 174.94,253.801 175.5,251.5C 175.5,250.833 175.5,250.167 175.5,249.5C 178.237,249.599 180.904,249.265 183.5,248.5 Z"/></g>
<g><path style="opacity:1" fill="#87a880" d="M 162.5,258.5 C 161.916,261.285 162.916,262.952 165.5,263.5C 165.5,263.833 165.5,264.167 165.5,264.5C 162.674,264.002 160.34,262.669 158.5,260.5C 160.199,260.473 161.533,259.806 162.5,258.5 Z"/></g>
<g><path style="opacity:1" fill="#65757f" d="M 248.5,257.5 C 249.791,257.263 250.791,257.596 251.5,258.5C 251.369,259.376 251.702,260.043 252.5,260.5C 257.1,259.557 261.767,259.223 266.5,259.5C 261.716,260.574 256.883,261.907 252,263.5C 242.061,262.703 232.228,263.537 222.5,266C 228.828,265.901 235.161,265.401 241.5,264.5C 242.833,264.667 244.167,264.833 245.5,265C 245.167,265.333 244.833,265.667 244.5,266C 248.821,266.499 253.154,266.666 257.5,266.5C 252.766,268.145 247.766,268.811 242.5,268.5C 236.611,268.45 230.944,269.116 225.5,270.5C 222.769,267.794 219.435,266.461 215.5,266.5C 218.809,264.63 222.475,263.63 226.5,263.5C 233.903,261.36 241.236,259.36 248.5,257.5 Z"/></g>
<g><path style="opacity:1" fill="#c1ced6" d="M 239.5,255.5 C 235.032,257.903 230.699,260.57 226.5,263.5C 222.475,263.63 218.809,264.63 215.5,266.5C 213.379,266.325 211.379,266.659 209.5,267.5C 206.972,266.834 204.306,266.168 201.5,265.5C 201.846,264.304 202.346,264.304 203,265.5C 215.128,261.845 227.294,258.511 239.5,255.5 Z"/></g>
<g><path style="opacity:1" fill="#55636a" d="M 277.5,262.5 C 276.081,263.451 274.415,263.784 272.5,263.5C 269.15,263.335 265.817,263.502 262.5,264C 261.429,264.852 260.429,265.685 259.5,266.5C 258.833,266.5 258.167,266.5 257.5,266.5C 253.154,266.666 248.821,266.499 244.5,266C 244.833,265.667 245.167,265.333 245.5,265C 244.167,264.833 242.833,264.667 241.5,264.5C 235.161,265.401 228.828,265.901 222.5,266C 232.228,263.537 242.061,262.703 252,263.5C 256.883,261.907 261.716,260.574 266.5,259.5C 274.789,259.724 282.623,258.057 290,254.5C 291.645,254.693 293.479,254.86 295.5,255C 297.087,255.862 298.754,256.529 300.5,257C 292.544,258.607 284.544,259.94 276.5,261C 277.056,261.383 277.389,261.883 277.5,262.5 Z"/></g>
<g><path style="opacity:1" fill="#bea753" d="M 172.5,255.5 C 172.167,256.833 171.833,258.167 171.5,259.5C 171.5,260.167 171.5,260.833 171.5,261.5C 170.732,262.263 170.232,263.263 170,264.5C 169.329,265.252 168.496,265.586 167.5,265.5C 166.508,265.672 165.842,265.338 165.5,264.5C 165.5,264.167 165.5,263.833 165.5,263.5C 166.167,262.167 166.833,260.833 167.5,259.5C 167.238,260.978 167.571,262.311 168.5,263.5C 169.543,260.556 170.876,257.889 172.5,255.5 Z"/></g>
<g><path style="opacity:1" fill="#7a96a4" d="M 272.5,263.5 C 268.319,264.66 263.985,265.66 259.5,266.5C 260.429,265.685 261.429,264.852 262.5,264C 265.817,263.502 269.15,263.335 272.5,263.5 Z"/></g>
<g><path style="opacity:0.839" fill="#6e8c91" d="M 171.5,261.5 C 171.065,263.703 171.065,265.703 171.5,267.5C 169.847,267.34 168.514,266.674 167.5,265.5C 168.496,265.586 169.329,265.252 170,264.5C 170.232,263.263 170.732,262.263 171.5,261.5 Z"/></g>
<g><path style="opacity:1" fill="#7f8c94" d="M 207.5,260.5 C 207.5,260.833 207.5,261.167 207.5,261.5C 197.873,263.653 188.373,266.319 179,269.5C 178.098,269.257 177.265,268.923 176.5,268.5C 177.11,267.609 177.443,266.609 177.5,265.5C 187.686,264.691 197.686,263.025 207.5,260.5 Z"/></g>
<g><path style="opacity:0.235" fill="#a3c9d8" d="M 242.5,268.5 C 237.189,269.645 231.856,270.645 226.5,271.5C 225.833,271.5 225.5,271.167 225.5,270.5C 230.944,269.116 236.611,268.45 242.5,268.5 Z"/></g>
<g><path style="opacity:1" fill="#8697a1" d="M 179.5,274.5 C 180.404,275.209 180.737,276.209 180.5,277.5C 181.833,277.5 183.167,277.5 184.5,277.5C 184.768,279.099 184.434,280.432 183.5,281.5C 180.726,280.12 178.06,278.454 175.5,276.5C 173.392,276.86 171.392,277.527 169.5,278.5C 172.088,281.427 175.421,282.927 179.5,283C 178.944,283.383 178.611,283.883 178.5,284.5C 178.167,284.5 177.833,284.5 177.5,284.5C 175.742,284.123 174.075,283.456 172.5,282.5C 168.049,283.903 163.716,283.569 159.5,281.5C 156.224,283.97 152.558,285.637 148.5,286.5C 148.611,285.883 148.944,285.383 149.5,285C 146.621,284.126 143.955,284.46 141.5,286C 143.473,286.495 145.473,286.662 147.5,286.5C 145.167,287.833 142.833,287.833 140.5,286.5C 139.791,285.596 138.791,285.263 137.5,285.5C 142.068,283.679 146.735,281.845 151.5,280C 160.964,278.8 170.297,276.967 179.5,274.5 Z"/></g>
<g><path style="opacity:1" fill="#55656f" d="M 183.5,281.5 C 182.952,284.084 181.285,285.084 178.5,284.5C 178.611,283.883 178.944,283.383 179.5,283C 175.421,282.927 172.088,281.427 169.5,278.5C 171.392,277.527 173.392,276.86 175.5,276.5C 178.06,278.454 180.726,280.12 183.5,281.5 Z"/></g>
<g><path style="opacity:1" fill="#2b2c2e" d="M 210.5,271.5 C 212.948,270.527 215.615,270.194 218.5,270.5C 225.634,274.771 227.634,280.771 224.5,288.5C 222.628,290.604 220.295,291.937 217.5,292.5C 220.333,287.544 221.167,282.211 220,276.5C 217.715,273.108 214.548,271.441 210.5,271.5 Z"/></g>
<g><path style="opacity:0.929" fill="#e4f0f6" d="M 239.5,255.5 C 227.294,258.511 215.128,261.845 203,265.5C 202.346,264.304 201.846,264.304 201.5,265.5C 204.306,266.168 206.972,266.834 209.5,267.5C 207.228,268.441 205.228,269.774 203.5,271.5C 202.504,271.586 201.671,271.252 201,270.5C 198.515,271.987 196.348,273.821 194.5,276C 192.975,277.009 191.308,277.509 189.5,277.5C 189.48,275.857 190.147,274.524 191.5,273.5C 190.995,272.081 189.995,271.415 188.5,271.5C 185.443,272.633 182.443,273.633 179.5,274.5C 170.297,276.967 160.964,278.8 151.5,280C 146.735,281.845 142.068,283.679 137.5,285.5C 128.569,286.87 119.903,288.87 111.5,291.5C 107.677,292.336 104.011,293.336 100.5,294.5C 88.2981,296.399 76.2981,299.232 64.5,303C 65.448,303.483 66.448,303.649 67.5,303.5C 66.4324,304.434 65.099,304.768 63.5,304.5C 62.7261,303.853 61.7261,303.52 60.5,303.5C 46.4027,306.677 32.4027,310.177 18.5,314C 17.2617,314.69 17.2617,315.19 18.5,315.5C 17.6977,316.885 17.0311,316.718 16.5,315C 16.6448,314.228 16.9781,313.561 17.5,313C 19.5,312.333 21.5,311.667 23.5,311C 71.2675,298.474 118.934,285.474 166.5,272C 168.949,271.275 171.283,270.275 173.5,269C 172.944,268.617 172.611,268.117 172.5,267.5C 173.833,267.833 175.167,268.167 176.5,268.5C 177.265,268.923 178.098,269.257 179,269.5C 188.373,266.319 197.873,263.653 207.5,261.5C 216.149,258.113 224.816,254.613 233.5,251C 237.462,249.304 241.462,249.137 245.5,250.5C 245.5,251.5 245.5,252.5 245.5,253.5C 243.102,253.259 241.102,253.926 239.5,255.5 Z"/></g>
<g><path style="opacity:1" fill="#beccd3" d="M 203.5,271.5 C 200.78,274.993 199.447,278.993 199.5,283.5C 195.445,283.824 191.445,283.491 187.5,282.5C 186.617,281.452 185.95,280.285 185.5,279C 187.184,276.756 188.184,274.256 188.5,271.5C 189.995,271.415 190.995,272.081 191.5,273.5C 190.147,274.524 189.48,275.857 189.5,277.5C 191.308,277.509 192.975,277.009 194.5,276C 196.348,273.821 198.515,271.987 201,270.5C 201.671,271.252 202.504,271.586 203.5,271.5 Z"/></g>
<g><path style="opacity:1" fill="#1b1c1d" d="M 210.5,271.5 C 214.548,271.441 217.715,273.108 220,276.5C 221.167,282.211 220.333,287.544 217.5,292.5C 207.023,292.851 202.856,287.851 205,277.5C 206.252,275.999 207.252,274.332 208,272.5C 208.671,271.748 209.504,271.414 210.5,271.5 Z"/></g>
<g><path style="opacity:1" fill="#9eb0ba" d="M 188.5,271.5 C 188.184,274.256 187.184,276.756 185.5,279C 185.95,280.285 186.617,281.452 187.5,282.5C 191.445,283.491 195.445,283.824 199.5,283.5C 199.401,286.237 199.735,288.904 200.5,291.5C 195.181,292.339 190.848,290.672 187.5,286.5C 185.423,287.988 184.423,289.988 184.5,292.5C 183.136,290.78 182.136,288.78 181.5,286.5C 180.051,285.828 178.718,285.161 177.5,284.5C 177.833,284.5 178.167,284.5 178.5,284.5C 181.285,285.084 182.952,284.084 183.5,281.5C 184.434,280.432 184.768,279.099 184.5,277.5C 183.167,277.5 181.833,277.5 180.5,277.5C 180.737,276.209 180.404,275.209 179.5,274.5C 182.443,273.633 185.443,272.633 188.5,271.5 Z"/></g>
<g><path style="opacity:0.906" fill="#a3b4bd" d="M 137.5,285.5 C 138.791,285.263 139.791,285.596 140.5,286.5C 131.146,287.754 122.146,290.088 113.5,293.5C 113.5,292.167 112.833,291.5 111.5,291.5C 119.903,288.87 128.569,286.87 137.5,285.5 Z"/></g>
<g><path style="opacity:1" fill="#465962" d="M 148.5,286.5 C 148.167,286.5 147.833,286.5 147.5,286.5C 145.473,286.662 143.473,286.495 141.5,286C 143.955,284.46 146.621,284.126 149.5,285C 148.944,285.383 148.611,285.883 148.5,286.5 Z"/></g>
<g><path style="opacity:1" fill="#4b5156" d="M 218.5,270.5 C 222.736,270.687 225.569,272.687 227,276.5C 228.113,277.305 229.279,277.972 230.5,278.5C 231.775,281.604 231.775,284.604 230.5,287.5C 229.069,287.881 228.236,288.881 228,290.5C 227.29,289.027 226.124,288.36 224.5,288.5C 227.634,280.771 225.634,274.771 218.5,270.5 Z"/></g>
<g><path style="opacity:1" fill="#778b96" d="M 200.5,291.5 C 201.627,294.745 203.961,296.578 207.5,297C 212.504,296.839 217.504,296.339 222.5,295.5C 218.288,298.056 213.622,299.39 208.5,299.5C 203.13,299.608 197.797,299.275 192.5,298.5C 188.639,297.921 185.973,295.921 184.5,292.5C 184.423,289.988 185.423,287.988 187.5,286.5C 190.848,290.672 195.181,292.339 200.5,291.5 Z"/></g>
<g><path style="opacity:1" fill="#55595e" d="M 215.5,266.5 C 219.435,266.461 222.769,267.794 225.5,270.5C 225.5,271.167 225.833,271.5 226.5,271.5C 228.588,273.336 229.921,275.669 230.5,278.5C 229.279,277.972 228.113,277.305 227,276.5C 225.569,272.687 222.736,270.687 218.5,270.5C 215.615,270.194 212.948,270.527 210.5,271.5C 209.504,271.414 208.671,271.748 208,272.5C 207.252,274.332 206.252,275.999 205,277.5C 202.856,287.851 207.023,292.851 217.5,292.5C 220.295,291.937 222.628,290.604 224.5,288.5C 226.124,288.36 227.29,289.027 228,290.5C 228.236,288.881 229.069,287.881 230.5,287.5C 229.5,291.833 226.833,294.5 222.5,295.5C 217.504,296.339 212.504,296.839 207.5,297C 203.961,296.578 201.627,294.745 200.5,291.5C 199.735,288.904 199.401,286.237 199.5,283.5C 199.447,278.993 200.78,274.993 203.5,271.5C 205.228,269.774 207.228,268.441 209.5,267.5C 211.379,266.659 213.379,266.325 215.5,266.5 Z"/></g>
<g><path style="opacity:1" fill="#788891" d="M 111.5,291.5 C 112.833,291.5 113.5,292.167 113.5,293.5C 112.393,295.969 110.393,296.969 107.5,296.5C 107.209,295.351 106.376,294.684 105,294.5C 103.467,294.773 101.967,295.106 100.5,295.5C 100.5,295.167 100.5,294.833 100.5,294.5C 104.011,293.336 107.677,292.336 111.5,291.5 Z"/></g>
<g><path style="opacity:1" fill="#5a6b74" d="M 107.5,296.5 C 104.939,297.767 102.272,297.767 99.5,296.5C 99.5,295.833 99.8333,295.5 100.5,295.5C 101.967,295.106 103.467,294.773 105,294.5C 106.376,294.684 107.209,295.351 107.5,296.5 Z"/></g>
<g><path style="opacity:0.176" fill="#b7dae8" d="M 192.5,298.5 C 197.797,299.275 203.13,299.608 208.5,299.5C 206.527,300.163 204.361,300.496 202,300.5C 198.523,300.672 195.356,300.006 192.5,298.5 Z"/></g>
<g><path style="opacity:0.573" fill="#a8b6be" d="M 100.5,294.5 C 100.5,294.833 100.5,295.167 100.5,295.5C 99.8333,295.5 99.5,295.833 99.5,296.5C 88.8333,298.833 78.1667,301.167 67.5,303.5C 66.448,303.649 65.448,303.483 64.5,303C 76.2981,299.232 88.2981,296.399 100.5,294.5 Z"/></g>
<g><path style="opacity:0.957" fill="#b3bcc2" d="M 63.5,304.5 C 48.6835,308.798 33.6835,312.465 18.5,315.5C 17.2617,315.19 17.2617,314.69 18.5,314C 32.4027,310.177 46.4027,306.677 60.5,303.5C 61.7261,303.52 62.7261,303.853 63.5,304.5 Z"/></g>
</svg>
